<?xml version="1.0" standalone="no"?>
<!DOCTYPE svg PUBLIC "-//W3C//DTD SVG 1.1//EN" "http://www.w3.org/Graphics/SVG/1.1/DTD/svg11.dtd">
<svg xmlns="http://www.w3.org/2000/svg">
<metadata>Generated by Fontastic.me</metadata>
<defs>
<font id="untitled-font-1" horiz-adv-x="512">
<font-face font-family="untitled-font-1" units-per-em="512" ascent="480" descent="-32"/>
<missing-glyph horiz-adv-x="512" />

<glyph glyph-name="3g" unicode="&#97;" d="M58 83c-19 0-33 2-45 6-8 3-12 12-9 20 3 8 12 12 20 9 8-4 18-5 34-5 17 0 31 10 31 23 0 23-31 24-35 24l-9 0c-8 0-15 7-15 15 0 8 7 15 15 15l9 0c17 0 35 6 35 22 0 13-14 19-28 19-14 0-24-3-31-6-7-3-16 1-19 9-3 8 1 16 9 19 9 4 22 8 41 8 34 0 58-21 58-49 0-15-7-28-18-37 11-10 18-23 18-39 0-15-6-28-18-38-11-10-27-15-43-15z m178 0c-53 0-88 35-88 90 0 23 9 46 26 62 16 16 38 25 62 25 18 0 31-1 43-5 8-3 12-12 9-20-2-7-11-12-19-9-8 3-19 4-33 4-33 0-57-25-57-57 0-38 20-60 57-60 8 0 15 1 23 3l0 39-23 0c-8 0-15 7-15 15 0 8 7 15 15 15l38 0c8 0 15-7 15-15l0-66c0-7-4-12-10-14-15-5-28-7-43-7z m258 113c-8 0-15 7-15 15 0 132-107 239-238 239-8 0-15 6-15 15 0 8 7 15 15 15 72 0 139-28 190-79 50-51 78-118 78-190 0-8-6-15-15-15z m-103 3c-8 0-15 6-15 15 0 74-61 135-135 135-9 0-15 7-15 15 0 8 6 15 15 15 91 0 165-74 165-165 0-9-6-15-15-15z"/>
<glyph glyph-name="a" unicode="&#98;" d="M507 50c0-25-21-45-46-45l-411 0c-25 0-46 20-46 45l0 412c0 25 21 45 46 45l411 0c25 0 46-20 46-45l0-412z m-337 37l25 82 117 0 27-82 42 0-107 309-46 0-98-309z m81 266l1 0 49-152-97 0z"/>
<glyph glyph-name="actualizar" unicode="&#99;" d="M299 102c-3 0-6 1-7 3-3 3-4 8-3 12l28 65c0 1 1 2 2 3 0 0 0 0 0 0l106 106c2 2 5 3 7 3 3 0 6-1 8-3l38-38c4-4 4-11 0-15l-106-106c-1-1-2-2-3-2 0 0 0 0 0 0l-66-27c-2 0-3-1-4-1z m31 58l-12-29 29 12z m11 18l24-24 91 91-24 24z m-98-76l-122 0c-5 0-10 5-10 11 0 5 5 10 10 10l122 0c6 0 10-5 10-10 0-6-4-11-10-11z m176-61l0 70c0 8-7 16-15 16-9 0-16-8-16-16l0-70c0-3-3-6-6-6l-299 0c-4 0-7 3-7 6l0 429c0 3 3 6 7 6l298 0c4 0 7-3 7-6l0-145c0-9 7-16 16-16 8 0 15 7 15 16l0 145c0 20-17 37-38 37l-298 0c-21 0-38-17-38-37l0-429c0-21 17-38 38-38l298 0c21 0 38 17 38 38z m-70 202c0 6-5 10-10 10l-217 0c-6 0-11-4-11-10 0-6 5-10 11-10l217 0c5 0 10 4 10 10z m0 65c0 6-5 10-10 10l-217 0c-6 0-11-4-11-10 0-6 5-10 11-10l217 0c5 0 10 4 10 10z m0 65c0 6-5 10-10 10l-217 0c-6 0-11-4-11-10 0-5 5-10 11-10l217 0c5 0 10 4 10 10z"/>
<glyph glyph-name="adsl" unicode="&#101;" d="M419 17l-325 0c-42 0-76 34-76 76l0 327c0 42 34 76 76 76l325 0c42 0 75-34 75-76l0-265c0-11-9-20-20-20-11 0-20 9-20 20l0 265c0 19-16 35-35 35l-325 0c-19 0-35-16-35-35l0-327c0-19 16-35 35-35l325 0c19 0 35 16 35 35 0 11 9 20 20 20 11 0 20-9 20-20 0-42-33-76-75-76z m-30 70l-265 0c-25 0-45 20-45 45 0 11 9 20 21 20 11 0 20-9 20-20 0-2 2-4 4-4l265 0c2 0 4 2 4 4l0 178c0 2-2 4-4 4l-46 0c-11 0-20 9-20 21l0 46c0 2-2 4-4 4l-126 0c-2 0-3-2-3-4l0-46c0-12-10-21-21-21l-45 0c-2 0-4-1-4-4l0-117c0-11-9-20-20-20-12 0-21 9-21 20l0 117c0 25 20 45 45 45l25 0 0 26c0 25 20 45 44 45l126 0c25 0 45-20 45-45l0-26 25 0c25 0 45-20 45-45l0-178c0-25-20-45-45-45z m-54 52c-11 0-20 9-20 20l0 66c0 11 9 20 20 20 11 0 20-9 20-20l0-66c0-11-9-20-20-20z m-79 0c-11 0-20 9-20 20l0 66c0 11 9 20 20 20 12 0 21-9 21-20l0-66c0-11-9-20-21-20z m-78 0c-12 0-21 9-21 20l0 66c0 11 9 20 21 20 11 0 20-9 20-20l0-66c0-11-9-20-20-20z"/>
<glyph glyph-name="agencias" unicode="&#102;" d="M239 6l-146 0c-33 0-60 27-60 60l0 429c0 8 7 15 15 15 9 0 15-7 15-15l0-429c0-16 14-30 30-30l146 0c9 0 15-6 15-15 0-8-6-15-15-15z m-20 185l-90 0c-20 0-37 16-37 36l0 119c0 9 7 16 16 16 8 0 15-7 15-16l0-119c0-3 2-6 6-6l90 0c9 0 16-7 16-15 0-9-7-15-16-15z m62 75c-9 0-15 7-15 15l0 87c0 4-3 6-6 6l-131 0c-20 0-37 17-37 37l0 17c0 20 17 37 37 37l165 0c33 0 60-27 60-60l0-100c0-8-7-15-15-15-8 0-15 7-15 15l0 99c0 17-14 30-30 30l-165 0c-4 0-6-3-6-6l0-17c0-4 2-6 6-6l131 0c20 0 36-17 36-37l0-87c0-8-7-15-15-15z m117-259l-96 0c-5 0-9 4-9 9 0 6 4 10 9 10l37 0 0 15c-8 0-16 2-24 4-5 1-8 7-7 12 2 5 7 8 12 7 13-4 26-5 39-4 58 6 100 58 95 116-4 38-29 71-64 86-5 2-7 8-5 13 2 5 8 8 13 5 42-18 70-57 75-102 7-69-43-130-112-137 0 0-1 0-2-1l0-14 39 0c6 0 10-4 10-10 0-5-4-9-10-9z m-49 73c-47 0-86 38-86 85 0 11 2 22 6 31 6 16 17 30 31 40 14 10 31 15 49 15 14 0 29-4 41-11 27-15 44-44 44-74 0-48-38-86-85-86z m0 151c-27 0-52-17-61-42-3-7-5-15-5-24 0-36 30-65 66-65 36 0 65 29 65 65 0 24-13 46-33 58-10 5-21 8-32 8z"/>
<glyph glyph-name="agenda" unicode="&#103;" d="M412 5l-302 0c-28 0-50 22-50 49l0 388c0 36 29 66 66 66l262 0c23 0 41-18 41-40 0-10-8-17-17-17-10 0-17 7-17 17 0 3-3 6-7 6l-262 0c-18 0-32-14-32-32l0-341c5 2 10 3 16 3l285 0 0 300c0 9 7 17 17 17 9 0 17-8 17-17l0-316c0 0 0 0 0-1 0-9-8-17-17-17-9 0-16-7-16-16 0-8 7-16 16-16 9 0 17-7 17-16 0-10-8-17-17-17z m-302 65c-9 0-16-7-16-16 0-8 7-16 16-16l255 0c-2 5-3 11-3 16 0 6 1 11 3 16z m186 98c-15 0-29 6-40 17l-123 123c-22 22-22 57 0 80l33 33c3 3 7 5 12 5 4 0 9-2 12-5l51-51c3-3 5-8 5-12 0-5-2-9-5-12l-19-18 54-54 18 18c7 7 18 7 24 0l51-50c7-7 7-17 0-24l-33-33c-11-11-25-17-40-17z m-118 217l-21-21c-9-9-9-23 0-32l123-124c4-4 10-6 16-6 6 0 11 2 16 6l21 22-27 27-18-19c-7-6-18-6-24 0l-78 78c-3 3-5 7-5 12 0 4 2 8 5 12l19 18z"/>
<glyph glyph-name="ajustes" unicode="&#104;" d="M71 7c-17 0-34 6-46 19l-1 0c0 0 0 1 0 1-12 12-19 28-19 46 0 17 7 34 19 46l227 226c-11 43 2 90 34 122 35 34 85 46 131 31 0 0 1 0 1 0 3-1 5-3 6-4 1 0 1-1 2-1 4-4 6-10 6-16 0-6-2-11-7-15l-69-69c-5-5-8-12-8-19 0-8 3-15 8-20 11-11 29-11 40 0l66 66c0 0 0 0 1 1l2 2c0 0 0 0 0 0 9 8 22 8 31 0 3-3 5-6 6-10 14-46 1-95-33-129-24-24-57-37-91-37-13 0-26 2-40 6-8 3-13 12-10 21 2 9 12 13 21 11 34-11 72-2 97 23 21 20 31 49 28 77l-55-54c-23-24-62-24-86 0-12 11-18 26-18 43 0 16 6 31 18 43l54 54c-28 2-56-7-77-28-25-25-34-61-24-95 3-8 1-17-5-22 0-1-1-1-1-1l-231-229c-7-7-10-15-10-23 0-9 3-17 10-23l0 0c13-13 33-13 46 0l194 192c6 7 17 7 23 0 7-7 7-17 0-23l-193-193c-13-13-30-19-47-19z"/>
<glyph glyph-name="alarma" unicode="&#105;" d="M40 332c-4 0-8 1-11 4-17 17-26 40-26 64 0 24 10 46 27 63 17 17 39 26 63 26 0 0 0 0 0 0 24 0 47-9 64-26 2-3 3-5 4-8 0-1 0-1 1-2 4-8 1-17-7-21-27-13-51-33-71-56-5-7-15-7-21-2-7 5-8 15-2 21 18 22 39 40 63 55-9 6-20 9-31 9 0 0 0 0 0 0-16 0-31-6-42-17-11-12-17-26-17-42 0-16 6-31 17-42 6-6 6-16 0-22-3-3-7-4-11-4z m434 2c-4 0-7 2-10 4-6 6-7 16-1 22 22 23 22 60-1 83-11 11-26 17-42 17 0 0 0 0 0 0-11 0-22-3-31-9 24-14 45-33 64-55 5-6 4-16-2-21-7-5-17-4-22 2-20 24-44 43-71 57-7 3-10 13-7 20 1 1 1 1 1 2 1 3 2 6 4 8 17 17 40 26 64 26 0 0 0 0 0 0 24 0 46-9 63-26 17-16 27-38 27-62 0-23-9-46-25-63-3-3-7-5-11-5z m-101-303c-14 0-27 6-35 17l-1 1c0 0 0 0 0 0-1 2-4 3-7 2 0 0-1 0-1-1-23-9-48-13-73-13-26 0-51 4-74 14 0 0 0 0 0 0-3 1-6 0-7-2l-1 0c-14-20-41-24-61-9-9 7-15 17-17 29-2 11 1 22 8 31 0 1 0 1 0 1 2 2 2 5 0 7 0 1 0 1 0 1-28 35-44 79-44 123 0 35 9 69 27 99 4 7 13 10 21 5 7-4 9-13 5-20-15-26-22-54-22-84 0-37 12-74 36-103 0 0 0 0 0-1 11-12 12-31 2-45 0 0 0 0-1 0-2-3-3-7-2-10 0-4 2-7 5-9 6-5 15-3 19 3l0 0c10 13 28 18 43 12 1 0 1 0 1 0 20-8 40-12 62-12 22 0 43 4 62 12 1 0 1 0 2 1 15 5 32 0 41-13l1 0c0 0 0 0 0 0 4-6 13-8 19-3 6 4 7 13 2 19 0 0 0 1 0 1-10 14-9 32 2 45 0 0 0 0 0 0 24 29 36 65 36 103 0 92-74 166-165 166-38 0-74-13-104-37-7-5-16-4-22 3-5 6-4 16 3 21 35 28 77 43 123 43 108 0 196-88 196-196 0-44-16-88-44-123 0 0 0 0 0 0-2-2-2-5-1-8 1 0 1-1 1-1 14-19 10-46-9-60-8-6-17-9-26-9z m-118 180c-9 0-18 4-25 11-1 0-1 0-2 1l-77 77c-6 6-6 15 0 21 6 6 16 6 22 0l78-78c0 0 0 0 1 0 2-2 5-2 7 0l1 0c0 0 0 1 0 1l47 47c6 6 16 6 22 0 6-6 6-16 0-22l-47-47c-1 0-1 0-1 0-7-7-16-11-26-11z"/>
<glyph glyph-name="alertas" unicode="&#106;" d="M256 216c-10 0-18 8-18 17l0 164c0 10 8 18 18 18 10 0 18-8 18-18l0-164c0-9-8-17-18-17z m13-206c49 2 96 19 135 48 8 6 9 17 3 25-5 7-16 9-24 3-34-25-74-39-116-41-57-3-111 16-154 54-42 39-67 91-70 148-6 117 84 218 202 224 117 6 218-84 224-202 3-49-12-98-41-138-6-8-4-18 3-24 8-6 19-4 25 3 34 47 51 104 48 161-3 66-32 127-82 172-49 44-113 67-179 63-66-3-127-32-172-82-44-49-67-113-63-179 3-66 32-127 82-172 46-41 104-64 166-64 4 0 9 0 13 1z m16 147c0 8-4 15-9 21-1 1-2 2-4 2 0 1-1 2-2 2-5 2-9 3-14 3-16 0-29-13-29-29 0-16 13-28 29-28 16 0 29 13 29 29z"/>
<glyph glyph-name="altavoces" unicode="&#107;" d="M378 5l-239 0c-38 0-70 31-70 69l0 363c0 39 32 70 70 70l238 0c39 0 71-31 71-70l0-302c0-10-8-17-18-17-9 0-17 7-17 17l0 302c0 20-16 36-36 36l-238 0c-19 0-36-16-36-36l0-363c0-19 17-35 36-35l239 0c19 0 35 16 35 35 0 9 7 17 16 17l0 0c9 1 18-5 19-15 0-1 0-3 0-5-2-37-33-66-70-66z m-119 73c-68 0-124 55-124 123 0 67 56 122 124 122 68 0 123-55 123-122 0-68-55-123-123-123z m0 211c-49 0-90-40-90-88 0-49 41-89 90-89 49 0 89 40 89 89 0 48-40 88-89 88z m80 66c-25 0-45 21-45 46 0 25 20 45 45 45 25 0 46-20 46-45 0-26-21-46-46-46z m0 57c-6 0-11-5-11-11 0-7 5-12 11-12 6 0 11 5 11 12 0 6-5 11-11 11z"/>
<glyph glyph-name="antena" unicode="&#108;" d="M254 4c-8 0-16 7-16 16l0 292c-4 2-7 4-11 7 0 0 0 0 0 0l-121 122c-8 7-12 17-12 28 0 21 17 39 38 39l245 0c21 0 38-18 38-39 0-9-3-18-9-25 0-1-1-1-1-1l-87-87c-6-7-17-7-23 0-6 6-6 16 0 23l87 86c0 1 1 3 1 4 0 3-3 6-6 6l-106 0 0-455c0-9-8-16-17-16z m-122 471c-3 0-6-3-6-6 0-3 1-4 2-5 0 0 1 0 1 0l109-110 0 121z"/>
<glyph glyph-name="atracciones" unicode="&#109;" d="M317 9l-108 0c-17 0-29 17-29 39l0 220c0 2-1 3-1 4l-13 0c-16 0-29 17-29 39l0 179c0 10 8 18 18 18l43 0c10 0 18-8 18-18l0-70 7 0 0 70c0 10 8 18 18 18l43 0c10 0 18-8 18-18l0-70 8 0 0 70c0 10 8 18 18 18l43 0c10 0 18-8 18-18l0-179c0-22-13-39-29-39l-13 0c0-1 0-2 0-4l0-139c0-10-8-17-18-17-10 0-18 8-18 17l0 139c0 23 13 39 30 39l12 0c1 1 1 3 1 4l0 162-8 0 0-71c0-10-8-18-18-18l-44 0c-10 0-17 8-17 18l0 71-8 0 0-71c0-10-8-18-18-18l-43 0c-10 0-17 8-17 18l0 71-8 0 0-162c0-1 0-3 0-4l13 0c17 0 29-16 29-39l0-220c0-1 0-3 0-4l96 0c0 1 0 3 0 4l0 12c0 10 8 18 18 18 10 0 18-8 18-18l0-12c0-22-13-39-30-39z"/>
<glyph glyph-name="buscar" unicode="&#110;" d="M357 5l-200 0c-33 0-60 27-60 60l0 427c0 9 7 16 15 16 9 0 16-7 16-16l0-427c0-16 13-29 29-29l200 0c17 0 30 13 30 29l0 338c0 16-13 29-30 29l-182 0c-9 0-16 7-16 15 0 8 7 15 16 15l182 0c33 0 60-26 60-60l0-337c0-33-27-60-60-60z m-173 333c-12 0-20-4-25-11-6-7-8-18-8-32 0-14 2-25 8-32 5-7 13-10 25-10 12 0 20 3 26 10 5 7 8 18 8 32 0 14-3 25-8 32-6 7-14 11-26 11z m0-72c-5 0-9 2-11 6-2 4-3 12-3 23 0 11 1 19 3 23 2 4 6 6 11 6 5 0 9-2 11-6 2-4 4-12 4-23 0-11-2-19-4-23-2-4-6-6-11-6z m80 4c-3-3-10-4-18-4l-13 0 0-11c5-2 10-2 17-2 13 0 23 3 29 10 6 7 9 18 9 34l0 2c0 13-2 23-7 29-5 7-13 10-24 10-10 0-18-3-23-8-5-5-8-12-8-21 0-8 2-15 6-19 4-4 10-6 18-6 6 0 12 1 19 3 0-8-2-14-5-17z m-6 27c-5 0-9 1-11 3-2 1-3 5-3 10 0 10 4 15 12 15 5 0 9-2 10-5 2-4 3-10 3-18l0-4c-4-1-7-1-11-1z m78 41l-39-85 17 0 38 85z m-152-144c-12 0-20-3-25-10-6-7-8-18-8-32 0-15 2-25 8-33 5-6 13-10 25-10 12 0 20 4 26 10 5 7 8 18 8 33 0 14-3 25-8 32-6 7-14 10-26 10z m0-71c-5 0-9 2-11 6-2 4-3 11-3 23 0 11 1 18 3 22 2 4 6 7 11 7 5 0 9-2 11-7 2-4 4-11 4-22 0-12-2-19-4-23-2-4-6-6-11-6z m76 71c-12 0-21-3-26-10-5-7-8-18-8-32 0-15 3-25 8-33 5-6 14-10 26-10 12 0 20 4 25 10 6 7 8 18 8 33 0 14-2 25-8 32-5 7-13 10-25 10z m0-71c-6 0-9 2-11 6-3 4-4 11-4 23 0 11 1 18 4 22 2 4 6 7 11 7 5 0 9-2 11-7 2-4 3-11 3-22 0-12-1-19-3-23-2-4-6-6-11-6z m80 4c-4-3-10-5-19-5l-13 0 0-11c5-1 11-2 18-2 13 0 22 4 29 11 6 7 9 18 9 33l0 2c0 13-3 23-7 30-5 6-13 9-25 9-10 0-17-3-23-8-5-5-7-12-7-21 0-8 2-14 6-19 4-4 10-6 18-6 5 0 12 1 19 3 0-8-2-14-5-16z m-6 26c-6 0-9 1-11 3-2 2-4 5-4 10 0 10 4 15 13 15 5 0 8-2 10-5 2-3 3-9 3-17l0-5c-4-1-8-1-11-1z"/>
<glyph glyph-name="buscadors" unicode="&#111;" d="M73 6c-8 0-16 2-22 8l-36 36c-13 14-13 36 0 49l183 183c-11 27-15 57-11 86 6 34 21 65 45 89 30 31 71 47 113 47 43 0 84-16 114-47 30-30 47-70 47-113 0-43-17-83-47-113-31-31-72-48-114-48-24 0-48 6-71 17-7 4-10 13-7 21 4 7 13 10 21 7 50-25 110-15 149 24 25 25 38 57 38 92 0 35-13 67-38 92-24 24-57 38-92 38-34 0-67-14-91-38-39-39-49-101-25-151 3-5 2-13-2-17l-190-190c-2-2-2-4 0-6l35-36c3 0 9 2 12 5l146 145c6 6 15 6 21 0 6-6 6-16 0-22l-145-145c-6-6-15-11-24-12-3-1-6-1-9-1z"/>
<glyph glyph-name="buscador" unicode="&#112;" d="M447 77l-248 0c-9 0-17 8-17 17 0 10 8 17 17 17l248 0c14 0 25 11 25 25l0 218-96 0c-9 0-17 8-17 17l0 96-155 0c-14 0-25-11-25-25l0-39c0-9-8-17-17-17-10 0-17 8-17 17l0 39c0 33 26 59 59 59l172 0c1 0 1 0 1 0 5 0 8-2 11-5 0 0 0 0 0 0l112-111c4-4 6-8 6-13 0 0 0-1 0-1l0-235c0-32-26-59-59-59z m-54 311l55 0-55 55z m-319-366l110 110c4 4 4 11 0 15-4 5-11 5-15 0l-103-102-36 37 127 127 1 1c4 3 5 8 3 13-20 39-12 87 19 118 20 19 45 30 73 30 27 0 53-11 72-30 20-20 30-45 30-73 0-27-10-53-30-72-31-31-78-39-118-20-5 3-12 1-15-5-2-5 0-12 5-15 18-8 37-12 56-12 32 0 64 12 88 36 23 24 36 55 36 88 0 33-13 65-36 88-24 24-55 37-88 37-34 0-65-13-88-37-36-35-47-89-28-135l-130-131c-5-5-5-12 0-16l52-52c2-2 5-3 7-3 3 0 6 1 8 3z"/>
<glyph glyph-name="bluetooth" unicode="&#113;" d="M235 2c-22 0-40 18-40 40l0 144-66-65c-6-6-16-6-22 0-6 6-6 16 0 22l92 93c5 4 12 5 17 3 6-3 10-8 10-15l0-182c0-5 4-9 9-9 2 0 4 1 6 3 0 0 0 0 0 0l82 82c13 14 13 35 0 49l-78 78c-6 6-6 16 0 22l78 78c13 13 13 35 0 49l-82 81c-2 2-4 3-6 3-5 0-9-4-9-9l0-182c0-7-4-12-10-15-5-2-12-1-17 4l-94 94c-6 6-6 16 0 22 7 6 17 6 23 0l67-67 0 144c0 22 18 40 40 40 11 0 21-4 28-12l82-81c26-26 26-68 0-93l-67-67 67-67c26-25 26-67 0-93l-82-82c-7-8-18-12-28-12z"/>
<glyph glyph-name="blue-room" unicode="&#114;" d="M249 228c-15 0-27 12-27 26 0 15 12 27 27 27 14 0 26-12 26-27 0-14-12-26-26-26z m0 32c-4 0-6-3-6-6 0-3 2-5 6-5 3 0 5 2 5 5 0 3-2 6-5 6z m33-259c-6 0-11 1-15 3-1 0-1 0-1 0l-1 1-136 56c-8 3-12 13-8 21 3 8 12 12 21 9l136-57c1 0 1 0 1 0l0 0c1-1 2-1 3-1 3 0 6 3 6 7l0 427c0 0 0 1 0 2 0 3-3 6-6 6-1 0-2 0-3 0 0 0 0 0 0 0l-1-1-127-52 0-284c0-9-7-16-16-16-9 0-16 7-16 16l0 295c0 6 4 12 10 15l137 56c0 0 0 0 0 0l1 0c4 2 9 3 15 3 20 0 37-15 38-36 0 0 0-1 0-2l0-31 29 0c1 0 1 0 2 0 20 0 37-18 37-38l0-312c0-21-17-38-38-39 0 0 0 0 0 0l-30 0 0-9c0-22-17-39-38-39z m38 81l30 0c3 0 6 2 6 6l0 312c0 3-3 6-7 6 0 0 0 0-1 0l-27 0 0-324z m39 353c1-1 2-2 2-2 0 0-1 1-2 2z"/>
<glyph glyph-name="blog-ico" unicode="&#115;" d="M384 9l-332 0c-19 0-35 8-44 21-9 13-10 30-4 47l0 0c5 12 17 40 21 47 17 27 38 32 52 32l352 0c16 0 26 14 26 27 0 6-2 12-6 17-4 4-5 10-3 15 1 6 6 10 12 11 5 1 11-1 15-6 9-10 14-23 13-37 0-15-5-29-16-40-10-12-26-18-41-18l-19 0 21-47 0-1c7-17 6-34-3-47-9-13-25-21-44-21z m-351 56c-2-7-2-13 36-17 4-5 10-7 19-7l296 0c9 0 15 2 18 7 3 4 3 10 0 17l-26 60-299 0c-9 0-18-6-26-18-2-4-11-24-18-42z m334 121l-238 0c-8 0-15 7-15 16 0 9 7 16 15 16l238 0c17 0 31 13 31 30 0 9 7 16 15 16 9 0 16-7 16-16 0-34-28-62-62-62z m-298 0c-34 0-61 28-61 62l0 193c0 34 27 62 61 62l298 0c34 0 62-28 62-62 0-9-7-16-16-16-8 0-15 7-15 16 0 17-14 30-31 30l-298 0c-16 0-30-13-30-30l0-193c0-17 14-30 30-30 9 0 16-7 16-16 0-9-7-16-16-16z m261 57c-4 0-7 2-9 5-2 3-2 6-1 9l28 65c0 1 1 3 2 4l0 0 106 106c2 2 5 3 7 3 3 0 6-1 8-3l38-39c4-4 4-10 0-14l-106-106c-1-1-2-2-3-2l-66-27c-2-1-3-1-4-1z m31 57l-12-28 29 12z m11 18l24-23 91 91-24 24z m-123-55l-132 0c-6 0-10 5-10 11 0 5 4 10 10 10l132 0c4 0 7-2 9-5 2-3 2-7 0-11-2-3-5-5-9-5z"/>
<glyph glyph-name="bloqueo" unicode="&#116;" d="M248 7l-135 0c-33 0-60 27-60 60l0 427c0 8 7 15 15 15 8 0 15-7 15-15l0-427c0-16 14-30 30-30l135 0c8 0 15-6 15-15 0-8-7-15-15-15z m-12 184l-88 0c-20 0-36 16-36 36l0 119c0 9 7 15 15 15 8 0 15-6 15-15l0-119c0-3 3-6 6-6l88 0c8 0 15-7 15-15 0-8-7-15-15-15z m122 117c-9 0-15 7-15 15l0 81c0 16-14 30-30 30l-165 0c-3 0-6-3-6-6l0-18c0-3 3-6 6-6l131 0c20 0 36-16 36-36l0-45c0-8-7-15-15-15-8 0-15 7-15 15l0 45c0 3-3 6-6 6l-131 0c-20 0-36 16-36 36l0 18c0 20 16 36 36 36l165 0c33 0 60-27 60-60l0-81c0-8-7-15-15-15z m109-264l0 91c0 20-16 37-37 37l-70 0c-5 0-10-5-10-10 0-6 5-10 10-10l70 0c10 0 17-8 17-17l0-91c0-9-7-17-17-17l-105 0c-9 0-17 8-17 17l0 91c0 8 6 15 14 17 2 0 5 2 6 4 1 2 2 5 1 8l0 0c0 0 0 1 0 1l-23 55c-4 10 0 21 10 25l43 18c10 4 22 0 26-10l10-24c2-5 8-7 13-5 5 2 7 8 5 13l-10 23c-8 20-31 29-51 21l-43-18c-20-8-29-31-21-50l19-46c-11-7-18-19-18-32l0-91c0-20 16-37 36-37l105 0c21 0 37 17 37 37z"/>
<glyph glyph-name="blackberry" unicode="&#117;" d="M391 9l-263 0c-36 0-65 29-65 65l0 392c0 21 18 39 39 39l315 0c21 0 39-18 39-39 0-9-7-17-16-17-9 0-17 8-17 17 0 3-2 6-6 6l-315 0c-3 0-6-3-6-6l0-392c0-18 14-32 32-32l263 0c18 0 33 14 33 32l-1 334c0 9 8 17 17 17 9 0 16-8 16-17l0-334c0-36-29-65-65-65z m-15 62l-42 0c-9 0-17 7-17 16 0 9 8 16 17 16l42 0c9 0 16-7 16-16 0-9-7-16-16-16z m-96 0l-42 0c-9 0-16 7-16 16 0 9 7 16 16 16l42 0c9 0 17-7 17-16 0-9-8-16-17-16z m-95 0l-42 0c-9 0-16 7-16 16 0 9 7 16 16 16l42 0c9 0 17-7 17-16 0-9-8-16-17-16z m191 59l-42 0c-9 0-17 7-17 16 0 9 8 16 17 16l42 0c9 0 16-7 16-16 0-9-7-16-16-16z m-96 0l-42 0c-9 0-16 7-16 16 0 9 7 16 16 16l42 0c9 0 17-7 17-16 0-9-8-16-17-16z m-95 0l-42 0c-9 0-16 7-16 16 0 9 7 16 16 16l42 0c9 0 17-7 17-16 0-9-8-16-17-16z m168 60l-21 0c-9 0-16 7-16 16 0 9 7 16 16 16l21 0c3 0 6 3 6 7l0 38 0 135c0 4-3 7-6 7l-186 0c-4 0-7-3-7-7l0-173c0-4 3-7 7-7l20 0c9 0 17-7 17-16 0-9-8-16-17-16l-20 0c-22 0-40 17-40 39l1 173c0 22 17 39 39 39l186 0c21 0 39-17 39-39l0-135 0-38c0-22-18-39-39-39z m-94 0c-14 0-26 12-26 27 0 14 12 26 26 26 5 0 9-1 13-3 1 0 2-1 3-2 1 0 2-1 2-2 6-5 9-12 9-19 0-15-12-27-27-27z"/>
<glyph glyph-name="banco" unicode="&#118;" d="M445 34l-313 0c-8 0-15 7-15 15 0 8 7 15 15 15l313 0c16 0 29 13 29 29l0 333c0 16-13 29-29 29l-376 0c-16 0-29-13-29-29l0-333c0-16 13-29 29-29 8 0 15-7 15-15 0-8-7-15-15-15-33 0-60 26-60 59l0 333c0 33 27 59 60 59l376 0c33 0 59-26 59-59l0-333c0-33-26-59-59-59z m-137 103c-8 0-15 7-15 15l0 34c0 9 7 16 15 16 9 0 15-7 15-16l0-34c0-8-6-15-15-15z m83 48c-4 0-8 1-11 4l-22 22c-6 6-6 16 0 22 6 6 15 6 21 0l22-22c6-6 6-16 0-22-3-3-7-4-10-4z m-164 1c-4 0-8 1-11 4-6 6-6 15 0 21l21 22c6 6 16 6 22 0 6-6 6-16 0-22l-22-21c-3-3-6-4-10-4z m81 36c-20 0-36 16-36 36 0 20 16 36 36 36 20 0 36-16 36-36 0-20-16-36-36-36z m0 41c-3 0-6-2-6-5 0-4 3-6 6-6 3 0 6 2 6 6 0 3-3 5-6 5z m-60 15c-4 0-8 2-11 5l-23 23c-6 6-6 16 0 22 6 6 15 6 21 0l24-24c6-6 6-15 0-21-3-3-7-5-11-5z m120 0c-3 0-7 2-10 5-6 6-6 15 0 21l25 26c6 6 16 6 22 0 6-6 6-16 0-22l-26-25c-3-3-7-5-11-5z m-60 36c-8 0-15 7-15 15l0 38c0 8 7 15 15 15 9 0 15-7 15-15l0-38c0-8-6-15-15-15z"/>
<glyph glyph-name="b" unicode="&#119;" d="M508 50c0-25-20-46-45-46l-412 0c-25 0-45 21-45 46l0 411c0 25 20 45 45 45l412 0c25 0 45-20 45-45z m-254 36c41 0 70 9 88 25 16 14 23 35 23 62 0 21-5 37-16 51-10 13-25 22-45 26 13 6 23 15 31 27 7 11 10 25 10 41 0 23-6 41-19 54-16 15-43 23-83 23l-82 0 0-309z m-53 277l39 0c26 0 44-4 53-13 8-8 12-20 12-37 0-16-4-28-12-37-9-10-27-15-52-15l-40 0z m0-133l47 0c16 0 29-1 39-4 9-2 17-6 23-12 9-9 14-22 14-40 0-18-5-32-15-41-7-6-14-9-24-12-10-2-24-3-43-3l-41 0 0 112z"/>
<glyph glyph-name="ayuda" unicode="&#120;" d="M256 9c-61 0-120 23-166 64-49 44-78 105-81 172-4 66 19 130 63 179 44 49 105 79 172 82 137 7 254-98 261-235 3-60-15-119-52-166-6-8-17-9-25-3-8 6-9 17-3 24 32 41 48 91 45 143-6 117-107 208-224 202-57-3-110-28-148-70-38-43-57-97-54-155 2-56 27-109 70-147 42-38 97-58 154-55 42 3 83 17 117 43 7 5 18 4 24-4 6-8 4-19-3-25-40-29-87-46-136-49-5 0-9 0-14 0z m-1 176c-10 0-18 8-18 17l0 41c0 16 10 29 24 35 22 9 44 27 44 50 0 27-23 50-50 50-28 0-51-23-51-50 0-10-7-18-17-18-10 0-18 8-18 18 0 47 39 85 86 85 47 0 85-38 85-85 0-20-8-38-23-54-14-15-31-24-43-29 0 0 0 0-1 0 0-1-1-1-1-2l0-41c0-9-7-17-17-17z m28-59c0 8-3 16-9 21l-15-17c1-1 2-3 2-4 0-4-3-7-6-7-1 0-3 1-4 1l2 4-2-3c-2 1-3 3-3 5 0 3 3 6 7 6 1 0 2 0 3-1l10 20c-4 2-8 3-13 3-16 0-29-12-29-28 0-16 13-29 29-29 16 0 28 13 28 29z m0 0c0 8-3 16-9 21-1 1-2 2-3 2-1 1-2 1-3 2-4 2-9 3-13 3-16 0-29-12-29-28 0-16 13-29 29-29 16 0 28 13 28 29z"/>
<glyph glyph-name="auto-ayuda" unicode="&#121;" d="M343 36c-11 0-21 4-29 11 0 0 0 1 0 1l-112 112c-12 11-15 28-10 43l-112 112-32 14c-4 2-7 5-9 9l-33 70c-3 7-2 15 4 20l25 26c6 5 14 6 21 3l70-33c3-2 6-5 8-9l14-31 53-53c4 1 7 1 10 1l264 0c10 0 18-8 18-18 0-10-8-18-18-18l-239 0 24-24c5 1 10 2 14 2 11 0 22-4 30-12l57-57c4-5 6-11 5-16-1-6-5-11-11-13l-36-16c-4-1-6-6-4-10l4-11c2-2 3-4 4-4 2 0 4-1 6 0l122 51c14 5 22 18 22 33 0 10 8 18 18 18 0 0 0 0 0 0 10 0 18-8 18-18 0-29-17-55-44-66 0 0 0 0 0 0l-122-51c-11-4-22-4-33 0 0 0-1 0-1 1l30-30c2-2 6-2 8 0l32 32c7 7 19 7 26 0 7-7 7-18 0-25l-33-32c0 0 0 0 0 0-8-8-18-12-29-12z m-274 323l28-13c2-1 4-2 6-3l124-125c7-7 7-18 0-25-3-2-3-6 0-8l60-60c0 0 0 0 0 0l-5 12c-9 22 1 47 23 56l12 5-38 39c-2 1-4 1-5 1-1 0-2 0-4-1-3-4-8-6-12-6-5 0-10 2-13 6l-58 58c-1 0-1 0-1 0l-65 66c-2 1-3 3-4 5l-13 29-52 25-8-8z"/>
<glyph glyph-name="atracciones-f" unicode="&#122;" d="M445 207l-60 0c-7 0-12 5-12 12 0 6 5 12 12 12l59 0 0 116c0 12 11 23 23 23l19 0 0 82-19 0 0-35c0-6-5-11-12-11l-43 0c-7 0-12 5-12 11l0 35-19 0 0-35c0-6-5-11-12-11l-42 0c-6 0-12 5-12 11l0 35-18 0 0-82 18 0c13 0 24-11 24-23l0-36c0-7-6-12-12-12-7 0-12 5-12 12l0 35-19 0c-13 0-23 11-23 23l0 95c0 7 5 12 12 12l42 0c7 0 12-5 12-12l0-35 18 0 0 35c0 7 6 12 12 12l43 0c7 0 12-5 12-12l0-35 19 0 0 35c0 7 6 12 12 12l43 0c6 0 12-5 12-12l0-95c0-13-11-23-24-23l-18 0 0-116c0-13-10-23-23-23z m-84-163c3 3 5 8 5 13 0 26-11 49-31 65-8 7-20 5-26-3-7-8-5-20 3-26 6-5 10-11 13-18l-132 0c3 7 7 13 13 18 8 6 10 18 3 26-6 8-18 10-26 3-20-16-31-39-31-65 0-10 8-19 18-19l178 0c5 0 9 2 13 6z m-253 13c0 11-9 19-19 19l-49 0 0 44c0 44 20 85 54 113 8 6 10 18 3 26-6 8-18 9-26 3-43-35-68-86-68-142l0-63c0-10 8-18 18-18l68 0c10 0 19 8 19 18z m234 151c0 41-34 75-76 75-41 0-75-34-75-75 0-42 34-75 75-75 42 0 76 33 76 75z m-38 0c0-21-17-39-38-39-21 0-38 18-38 39 0 21 17 38 38 38 21 0 38-17 38-38z m-57 152c0 49-41 90-91 90-50 0-91-40-91-90 0-51 41-91 91-91 50 0 91 40 91 91z m-37 0c0-30-24-54-54-54-30 0-54 24-54 54 0 29 24 53 54 53 30 0 54-24 54-53z"/>
<glyph glyph-name="c" unicode="&#65;" d="M507 50c0-25-20-45-45-45l-412 0c-25 0-46 20-46 45l0 412c0 26 21 46 46 46l412 0c25 0 45-20 45-46z m-317 70c23-26 58-39 104-39 26 0 49 3 68 9l-3 31c-22-5-40-7-55-7-36 0-61 9-78 25-19 20-28 54-28 102 0 48 9 82 27 102 15 17 38 25 69 25 20 0 41-3 62-8l5 30c-21 8-45 12-72 12-19 0-37-3-53-9-16-6-29-14-40-26-27-27-40-69-40-127 0-54 11-93 34-120z"/>
<glyph glyph-name="calculadora" unicode="&#66;" d="M356 3l-210 0c-33 0-62 26-62 57l0 235c0 8 7 15 16 15 8 0 15-7 15-15l0-235c0-12 14-26 31-26l210 0c17 0 31 14 31 31l0 266-266 0c-20 0-37 17-37 38l0 71c0 18 7 36 21 49 12 11 29 18 46 18l205 0c34 0 62-28 62-62l0-380c0-35-28-62-62-62z m-205 472c-17 0-36-13-36-35l0-71c0-4 3-7 6-7l266 0 0 83c0 17-14 30-31 30z m181-396c-9 0-16 7-16 16l0 81c0 9 7 16 16 16 9 0 16-7 16-16l0-81c0-9-7-16-16-16z m-81-5c-14 0-26 11-26 26 0 14 12 25 26 25 14 0 26-11 26-25 0-15-12-26-26-26z m0 31c-3 0-6-2-6-5 0-4 3-6 6-6 3 0 6 2 6 6 0 3-3 5-6 5z m-81-31c-14 0-26 11-26 26 0 14 11 25 26 25 14 0 26-11 26-25 0-15-12-26-26-26z m0 31c-3 0-6-2-6-5 0-4 3-6 6-6 3 0 6 2 6 6 0 3-3 5-6 5z m81 41c-14 0-26 11-26 25 0 15 12 26 26 26 14 0 26-11 26-26 0-14-12-25-26-25z m0 31c-3 0-6-2-6-6 0-3 3-5 6-5 3 0 6 2 6 5 0 4-3 6-6 6z m-81-31c-14 0-26 11-26 25 0 15 11 26 26 26 14 0 26-11 26-26 0-14-12-25-26-25z m0 31c-3 0-6-2-6-6 0-3 3-5 6-5 3 0 6 2 6 5 0 4-3 6-6 6z m162 40c-14 0-26 12-26 26 0 14 12 26 26 26 14 0 26-12 26-26 0-14-12-26-26-26z m0 32c-3 0-6-3-6-6 0-3 3-6 6-6 3 0 6 3 6 6 0 3-3 6-6 6z m-81-32c-14 0-26 12-26 26 0 14 12 26 26 26 14 0 26-12 26-26 0-14-12-26-26-26z m0 32c-3 0-6-3-6-6 0-3 3-6 6-6 3 0 6 3 6 6 0 3-3 6-6 6z m-81-32c-14 0-26 12-26 26 0 14 11 26 26 26 14 0 26-12 26-26 0-14-12-26-26-26z m0 32c-3 0-6-3-6-6 0-3 3-6 6-6 3 0 6 3 6 6 0 3-3 6-6 6z"/>
<glyph glyph-name="calendario" unicode="&#67;" d="M405 4l-271 0c-15 0-29 8-36 20-5 9-2 19 6 24 8 5 19 2 24-6 1-2 3-4 6-4l271 0c19 0 33 15 33 34l0 293c0 3-1 5-3 6-8 5-10 16-5 24 5 8 15 11 23 5 13-7 20-20 20-35l0-293c0-38-30-68-68-68z m-69 67l-227 0c-37 0-68 30-68 68l0 277c0 23 19 41 42 41l35 0c4 0 7 3 7 7l0 28c0 10 8 17 17 17 10 0 17-7 17-17l0-28c0-23-18-41-41-41l-35 0c-4 0-7-3-7-7l0-277c0-18 15-33 33-33l227 0c19 0 34 15 34 33l0 277c0 4-3 7-7 7-10 0-17 7-17 17 0 9 7 17 17 17 23 0 41-18 41-41l0-277c0-38-30-68-68-68z m-105 96c-9 0-17 8-17 18l0 129-32-32c-7-7-18-7-24 0-7 7-7 18 0 24l61 62c5 5 12 6 19 4 6-3 11-9 11-16l0-171c0-10-8-18-18-18z m51 256l-83 0c-10 0-18 7-18 17 0 9 8 17 18 17l83 0c3 0 6 3 6 7l0 28c0 10 8 17 18 17 9 0 17-7 17-17l0-28c0-23-18-41-41-41z"/>
<glyph glyph-name="camara" unicode="&#68;" d="M441 64l-369 0c-36 0-66 30-66 66l0 219c0 37 30 66 66 66l107 0 19 49c2 7 9 12 16 12l84 0c7 0 13-5 15-11l23-61c3-9-1-18-10-22-9-3-18 1-22 10l-18 50-61 0-18-50c-3-6-9-11-16-11l-119 0c-18 0-32-14-32-32l0-219c0-18 15-32 32-32l369 0c18 0 32 14 32 32l0 219c0 18-14 32-32 32l-62 0c-9 0-17 8-17 17 0 10 8 17 17 17l62 0c36 0 66-29 66-66l0-219c0-36-30-66-66-66z m-70 176c0 63-51 115-114 115-64 0-115-52-115-115 0-64 51-115 115-115 63 0 114 51 114 115z m-34 0c0-45-36-81-80-81-45 0-81 36-81 81 0 44 36 81 81 81 44 0 80-37 80-81z m34 0c0 63-51 115-114 115-64 0-115-52-115-115 0-64 51-115 115-115 63 0 114 51 114 115z m-34 0c0-45-36-81-80-81-45 0-81 36-81 81 0 44 36 81 81 81 44 0 80-37 80-81z m-26 0c0 30-25 54-54 54-30 0-55-24-55-54 0-30 25-54 55-54 30 0 54 24 54 54z m-34 0c0-11-9-20-20-20-11 0-20 9-20 20 0 11 9 20 20 20 11 0 20-9 20-20z m34 0c0 30-25 54-54 54-30 0-55-24-55-54 0-30 25-54 55-54 30 0 54 24 54 54z m-34 0c0-11-9-20-20-20-11 0-20 9-20 20 0 11 9 20 20 20 11 0 20-9 20-20z"/>
<glyph glyph-name="camara-mpx3" unicode="&#69;" d="M150 126c-23 0-39 3-54 8-9 3-13 13-10 22 3 9 13 13 22 10 11-4 23-6 42-6 23 0 40 13 40 29 0 31-40 32-44 32l-12 0c-9 0-16 7-16 17 0 9 7 16 16 16l12 0c21 0 44 8 44 29 0 17-18 24-35 24-18 0-30-3-39-7-9-3-18 1-22 10-3 9 1 19 10 22 11 4 27 9 51 9 39 0 68-25 68-58 0-19-8-35-22-46 14-12 22-28 22-48 0-17-7-33-21-45-13-11-32-18-52-18z m261 3l-107 0c-7 0-13 4-16 10-2 7-1 14 4 18l94 95c6 6 9 14 9 22 0 19-17 35-37 35-20 0-37-16-37-35 0-9-7-17-17-17-9 0-17 8-17 17 0 38 32 68 71 68 39 0 71-30 71-68 0-17-7-33-18-45 0 0 0-1-1-1l-66-66 67 0c9 0 17-7 17-16 0-10-8-17-17-17z m-158 0c-11 0-20 9-20 20 0 11 9 20 20 20 11 0 20-9 20-20 0-11-9-20-20-20z m0 34c-8 0-14-7-14-14 0-8 6-14 14-14 8 0 14 6 14 14 0 7-6 14-14 14z m254-39l0 219c0 37-29 66-66 66l-62 0c-9 0-16-7-16-17 0-9 7-17 16-17l62 0c18 0 32-14 32-32l0-219c0-18-14-32-32-32l-369 0c-17 0-32 14-32 32l0 219c0 18 15 32 32 32l119 0c7 0 14 5 16 11l19 50 60 0 19-50c3-8 13-13 22-10 8 4 13 13 9 22l-22 60c-3 7-9 11-16 11l-84 0c-7 0-13-4-16-11l-18-49-108 0c-36 0-65-30-65-66l0-219c0-36 29-66 65-66l369 0c37 0 66 30 66 66z"/>
<glyph glyph-name="camara-mpx4" unicode="&#70;" d="M440 60l-369 0c-36 0-66 29-66 66l0 219c0 37 30 66 66 66l107 0 19 50c3 6 9 11 16 11l84 0c7 0 13-5 16-11l22-61c4-9-1-18-9-22-9-3-19 2-22 10l-19 50-60 0-19-50c-2-6-9-11-16-11l-119 0c-18 0-32-14-32-32l0-219c0-18 14-32 32-32l369 0c18 0 33 14 33 32l0 219c0 18-15 33-33 33l-62 0c-9 0-16 7-16 16 0 10 7 17 16 17l62 0c37 0 66-29 66-66l0-219c0-37-29-66-66-66z m-151 84l0 39 19 0c9 0 16 7 16 17 0 9-7 16-16 16l-19 0 0 111c0 8-4 14-11 16-7 3-15 0-19-6l-94-127c-4-6-4-12-1-18 3-6 8-9 15-9l77 0 0-39c0-9 7-17 17-17 9 0 16 8 16 17z m-33 132l0-60-44 0z"/>
<glyph glyph-name="centro" unicode="&#71;" d="M150 5c-31 0-56 9-74 28 0 0 0 0 0 0l-2 1c-22 23-31 57-25 99 5 38 23 81 51 124 5 7 15 9 22 5 8-5 10-16 5-23-49-77-61-150-30-182 0 0 1 0 1 0l1-1c21-21 59-23 106-8 52 17 107 54 156 103 49 48 85 104 102 155 16 47 13 86-7 106l-2 2c0 0 0 0 0 0-19 19-48 19-69 16-33-4-70-19-108-43-8-5-18-3-23 5-5 8-2 18 5 23 42 26 84 43 121 48 41 5 75-4 97-26l2-2c0 0 0 0 0 0 30-30 35-79 15-139-18-56-58-116-110-169-53-52-112-91-168-110-24-8-46-12-66-12z m71 124c-6 0-12 4-15 10l-101 250c-2 6-1 13 4 17 5 5 12 6 18 4l243-103c8-4 12-13 8-22-3-8-13-12-21-9l-207 88 86-213c4-8 0-18-9-21-2-1-4-1-6-1z m-183 312c-8 0-15 3-21 8 0 0 0 0 0 0-11 12-12 31 0 42 0 0 0 0 0 0 3 4 8 6 12 7 1 1 3 1 4 1 1 0 2 1 3 1 9 0 17-3 23-9 5-5 8-13 8-21 0-8-3-15-8-21-6-5-14-8-21-8z"/>
<glyph glyph-name="chat" unicode="&#72;" d="M443 18c-4 0-8 1-11 4l-63 63-193 0c-17 0-33 7-45 19-6 6-6 17 0 23 6 6 17 6 23 0 6-6 14-9 22-9l200 0c4 0 8-2 11-5l40-40 0 28c0 9 7 17 16 17 18 0 32 14 32 32l0 180c0 17-14 32-32 32-9 0-16 7-16 16 0 9 7 16 16 16 36 0 64-29 64-64l0-180c0-30-20-56-48-63l0-53c0-6-4-12-10-15-2-1-4-1-6-1z m-372 100c-2 0-4 0-6 1-6 3-10 9-10 15l0 53c-28 7-48 33-48 63l0 180c0 36 29 64 64 64l267 0c35 0 64-28 64-64l0-180c0-36-29-65-64-65l-144 0c-9 0-16 7-16 16 0 9 7 17 16 17l144 0c17 0 32 14 32 32l0 180c0 18-15 32-32 32l-267 0c-18 0-32-14-32-32l0-180c0-18 14-32 32-32 9 0 16-8 16-17l0-28 40 40c6 6 16 6 23 0 6-7 6-17 0-23l-67-68c-4-3-8-4-12-4z"/>
<glyph glyph-name="ciego" unicode="&#73;" d="M171 192c-8 0-15 7-15 15l0 120c0 21 17 39 39 39 21 0 38-18 38-39l0-58 42-42c6-6 6-15 0-21-6-5-15-5-21 0l-46 47c-2 2-4 6-4 10l0 64c0 5-4 9-9 9-6 0-10-4-10-9l0-120c0-8-6-15-14-15z m38 190c-35 0-63 29-63 63 0 35 28 63 63 63 35 0 63-28 63-63 0-34-28-63-63-63z m0 97c-19 0-34-15-34-34 0-18 15-33 34-33 18 0 33 15 33 33 0 19-15 34-33 34z m232-438c5 6 5 15 0 21l-140 140c-6 5-15 5-21 0-6-6-6-15 0-21l140-140c3-3 6-4 10-4 4 0 8 1 11 4z m-270-29l48 115 49-115c4-7 12-11 20-7 7 3 10 11 7 19l-62 144 0 30c0 8-6 14-14 14-8 0-15-6-15-14l0-30-60-144c-3-8 1-16 8-19 2-1 4-2 6-2 6 0 11 4 13 9z"/>
<glyph glyph-name="cliente-preferencial" unicode="&#74;" d="M471 30c-2 0-3 0-5 0 0 0 0 0 0 1l-42 16c-3 2-5 6-4 10 2 4 6 5 10 4l40-16-16 45c0 0-1 1-1 1 0 1 0 2 0 3 1 1 1 2 2 3 0 1 0 1 1 1l38 38c0 0 0 0 0 0 0 0 0 0 0 0l-51 0c-2 0-5 2-6 4 0 1 0 1-1 1l-21 51c0 0 0 0 0 0 0 0-1 0-1 0l-20-50c-1-3-4-6-7-6l-51 0c0 0 0 0 0 0 0 0 0 0 0 0l39-39c2-2 3-5 2-7 0-1 0-1 0-1l-16-44 40 16c4 1 8 0 10-4 1-4-1-8-5-10l-41-16c0 0 0-1 0-1-6-1-12 0-16 4-2 3-5 8-3 15 0 0 0 0 0 0l15 41-36 35c-4 4-5 10-3 16 2 5 6 9 12 10 0 0 1 0 1 0l46 0 20 47c0 0 0 0 0 0 3 5 8 9 14 9 0 0 0 0 0 0 6-1 11-4 14-9 0 0 0 0 0-1l19-46 47 0c0 0 0 0 1 0 5-1 10-5 12-10 0 0 0 0 0 0 2-6 0-12-4-16l-35-34 15-42c3-7 0-12-3-15-2-3-6-4-10-4z m-154 19l-299 0c-8 0-15 7-15 15 0 32 7 62 21 91 14 27 34 51 57 70 7 5 16 4 21-2 5-7 4-16-2-21-39-31-63-75-67-124l284 0c8 0 15-6 15-14 0-8-7-15-15-15z m40 122c-4 0-8 1-11 5-8 10-17 18-27 26-6 5-7 14-2 21 5 6 14 7 21 2 11-9 22-19 31-30 5-7 4-16-2-21-3-2-6-3-10-3z m-146 69c-32 0-63 13-85 36-23 23-36 53-36 85 0 33 13 63 36 86 22 23 53 35 85 35 32 0 63-12 86-35 22-23 35-53 35-86 0-32-13-62-35-85-23-23-54-36-86-36z m0 213c-50 0-91-41-91-92 0-50 41-91 91-91 50 0 92 41 92 91 0 51-42 92-92 92z"/>
<glyph glyph-name="cobertura" unicode="&#75;" d="M473 7c-10 0-19 8-19 19l0 458c0 10 9 19 19 19 11 0 19-9 19-19l0-458c0-11-8-19-19-19z m-298 0c-11 0-19 9-19 19l0 281c-4 2-7 5-10 8l-118 117c-8 8-13 19-13 30 0 23 18 41 41 41l237 0c23 0 41-18 41-41 0-9-4-19-10-26 0-1 0-1-1-1l-85-85c-7-7-19-7-26 0-8 7-8 19 0 27l84 84c0 0 0 1 0 1 0 2-1 3-3 3l-100 0 0-439c0-10-8-19-18-19z m-119 458c-2 0-3-1-3-3 0 0 0-1 1-2 0 0 0 0 1-1l101-101 0 107z m330-385c-11 0-19 8-19 19l0 277c0 10 9 19 19 19 10 0 19-9 19-19l0-277c0-11-9-19-19-19z m-87 70c-11 0-19 9-19 19l0 116c0 10 8 19 19 19 10 0 18-9 18-19l0-116c1-10-8-19-18-19z"/>
<glyph glyph-name="como-comprar" unicode="&#76;" d="M423 280c-48 0-87 39-89 87-1 48 36 88 84 91 50 3 91-35 94-84 1-22-6-43-19-60-3-3-8-5-13-3 2-5 0-10-4-13-14-11-31-17-48-18-2 0-3 0-5 0z m0 155c-1 0-2-3-3 0-29-1-53-21-61-48-7-27 3-56 27-72 23-16 54-16 77 1 3 2 7 3 10 2-1 3 0 7 2 10 10 13 15 29 14 45-2 35-31 62-66 62z m-1-93c-2 0-4 1-6 2-1 2-2 4-2 7l0 13c0 7 4 12 10 14 3 2 12 7 12 15 0 7-6 14-14 14-7 0-14-7-14-14 0-5-3-9-8-9-5 0-9 4-9 9 0 17 14 31 31 31 18 0 32-14 32-31 0-13-9-24-23-30l0-12c0-3-1-5-2-7-2-1-4-2-7-2z m-3-25c-6 0-12 6-12 13 0 7 6 12 12 12 2 0 4 0 6-1 1 0 2-2 3-2 4-3 5-9 3-14-2-4-6-8-12-8z m-105-263c-15 0-29 10-35 24-6 15-2 32 10 42 1 1 2 2 4 3 1 1 2 2 3 2 6 3 12 5 18 5 14 0 27-7 34-19 7-12 7-26 0-38-7-12-20-19-34-19z m-5 45c0-22 0-1 0-1-3-3-4-7-2-10 2-4 7-5 10-4 4 2 6 6 5 10 0 3-4 6-8 6-1 0-2 0-3 0-1-1-1-1-2-1z m-102-45c-16 0-30 10-36 24-5 15-2 32 10 42 1 1 3 2 4 3 1 1 2 2 4 2 5 3 11 5 18 5 13 0 26-7 33-19 7-12 7-26 0-38-7-12-20-19-33-19z m-5 45c-1-22-1-1-1-1-3-3-4-7-1-10 2-4 6-5 10-4 3 2 5 6 5 10-1 3-4 6-8 6-2 0-3 0-4 0 0-1-1-1-1-1z m132 55l-143 0c-22 0-43 12-55 32 0 0 0 1 0 1l-93 221c0 1-1 2-2 2l-26 0c-8 0-15 6-15 14 0 9 7 15 15 15l26 0c13 0 25-8 30-20l92-219c6-10 17-16 28-16l143 0c12 0 22 6 29 15l38 92c3 7 12 10 20 7 7-3 11-12 8-19l-40-92c0-1 0-1 0-2-12-19-33-31-55-31z m3 182l-195 0c-8 0-15 7-15 15 0 8 7 15 15 15l195 0c9 0 15-7 15-15 0-8-6-15-15-15z"/>
<glyph glyph-name="comunidad" unicode="&#77;" d="M130 108c-5 0-8 1-11 4-3 3-5 7-5 11 0 44 20 85 55 112 3 3 7 4 11 3 4 0 8-3 10-6 5-7 4-17-3-22-22-17-37-43-41-71l215 0c-4 28-19 54-42 71-6 5-8 15-2 22 2 3 6 6 10 6 4 1 8 0 11-3 35-27 55-68 55-112 0-4-2-8-5-11-3-3-7-4-11-4l-247 0m123 296c-46 0-84-38-84-85 0-48 38-86 84-86 47 0 85 38 85 86 0 47-38 85-85 85z m0-140c-29 0-53 25-53 55 0 30 24 54 53 54 30 0 54-24 54-54 0-30-24-55-54-55z m-241-156c-3 0-6 1-9 3-2 2-3 5-3 8 0 33 15 64 41 84 2 2 5 3 9 3 3-1 5-2 7-5 4-5 3-12-2-16l0 0c-17-14-28-33-31-54l65 0c7 0 12-5 12-12 0-6-5-11-12-11l-77 0z m82 94c-1 0-1 0-2 0-30 7-51 33-51 63 0 36 29 65 64 65 29 0 54-20 61-48 2-7-2-13-8-15-3 0-6 0-9 2-3 1-5 4-5 7-5 18-21 30-39 30-23 0-41-18-41-41 0-19 14-36 32-40 7-1 11-7 9-13-1-6-5-10-11-10z m329-94c-7 0-12 5-12 11 0 7 5 12 12 12l65 0c-3 21-14 41-31 54-5 4-6 11-2 16 2 3 4 4 7 5 3 0 7-1 9-3 26-20 41-51 41-84 0-3-1-6-3-8-3-2-6-3-9-3z m-16 104c-1 3-1 6 1 8 2 3 5 5 8 5 19 4 33 22 33 42-1 20-17 37-37 39-20 2-38-11-44-30 0-3-2-6-5-7-3-2-6-2-9-2-6 2-10 8-8 15 7 28 32 48 61 48 35 0 64-29 64-65 0-30-21-56-51-63 4-3 5-7 5-12 0-4-3-8-7-11-9-3-19 2-22 11-3 9 2 18 11 22z"/>
<glyph glyph-name="desbloquear" unicode="&#78;" d="M281 78l-39 0c-6 0-11 5-11 11l0 77c-6 7-10 17-9 27 0 11 5 20 13 27 7 7 16 11 26 11 11 0 21-4 29-12 0 0 1-1 1-1 13-15 13-37 1-52l0-77c0-6-5-11-11-11z m-29 22l18 0 0 70c0 3 2 6 4 8 0 0 0 0 1 1l0 0c6 7 6 17 0 24 0 0 0 0 0 1-4 3-9 6-14 6-4 0-9-2-12-5-4-4-6-8-6-13 0-5 1-9 5-13 0 0 0-1 1-1 2-2 3-5 3-8l0-70z m171-29l0 166c0 36-30 65-66 65l-143 0c-10 0-17-7-17-16 0-9 7-17 17-17l143 0c18 0 33-14 33-32l0-166c0-18-15-32-33-32l-192 0c-17 0-32 14-32 32l0 166c0 15 11 28 26 31 4 1 8 4 10 8 3 3 4 8 3 12l-1 2c0 0 0 1-1 2l-41 100c-8 19 1 41 19 48l79 33c9 4 19 4 29 0 9-4 16-11 20-20l17-43c4-9 13-13 22-9 8 3 12 13 9 22l-18 42c-7 18-20 31-38 38-17 8-36 8-54 0l-78-32c-18-7-31-21-38-38-7-17-7-36 1-54l35-85c-20-11-34-33-34-57l0-166c0-36 29-66 65-66l192 0c36 0 66 30 66 66z"/>
<glyph glyph-name="deportes" unicode="&#79;" d="M398 4l-285 0c-22 0-41 18-41 40l0 28c0 22 19 40 41 40l9 0c24 27 55 47 89 56l0 90c-35 9-66 28-89 56-27 31-42 72-42 113l0 27c-11 8-21 11-28 8-6-2-11-13-12-27-2-40 19-109 57-124 9-3 14-13 11-22-4-8-14-13-22-10-57 22-83 107-80 158 3 38 22 52 33 57 9 4 27 7 50-5 8 9 19 14 32 14l269 0c13 0 24-5 32-14 18 9 35 11 50 5 11-5 30-19 33-57 3-51-23-137-79-158-9-3-19 2-22 10-4 9 1 19 10 22 38 15 59 84 57 124-1 14-6 25-12 27-7 3-17 0-28-8l0-27c0-42-15-82-42-113-23-28-54-48-89-57l0-89c35-9 65-29 89-56l9 0c23 0 41-18 41-40l0-28c0-22-19-40-41-40z m-285 74c-4 0-7-3-7-6l0-28c0-4 3-6 7-6l285 0c4 0 6 2 6 6l0 28c0 3-2 6-6 6z m59 34l167 0c-17 13-37 21-59 25-8 2-14 9-14 17l0 117c0 8 6 16 14 17 68 12 117 70 117 139l0 36c0 4-3 7-7 7l-269 0c-4 0-7-3-7-7l0-36c0-69 49-127 117-139 8-1 14-9 14-17l0-117c0-8-6-15-14-17-21-4-41-12-59-25z"/>
<glyph glyph-name="decodificador" unicode="&#80;" d="M349 3c-50 0-91 41-91 92 0 9 7 16 15 16 9 0 16-7 16-16 0-33 27-60 60-60 33 0 60 27 60 60l0 117c0 33-27 60-60 60-32 0-60-28-60-62l0-56c0-8-7-15-16-15-8 0-15 7-15 15l0 56c0 24 9 48 26 65 18 19 41 29 65 29 51 0 92-41 92-92l0-117c0-51-41-92-92-92z m-173 213c-9 0-16 7-16 16 0 95 77 172 172 172 9 0 16-8 16-16 0-9-7-16-16-16-77 0-140-63-140-140 0-9-7-16-16-16z m-104 0c-9 0-16 7-16 16 0 74 29 143 81 195 52 52 121 80 195 80 9 0 16-7 16-15 0-9-7-16-16-16-135 0-244-110-244-244 0-9-7-16-16-16z"/>
<glyph glyph-name="datos" unicode="&#81;" d="M253 106c-5 0-10 2-14 6-8 8-8 21 0 28l115 115-115 114c-8 8-8 21 0 29 8 8 21 8 29 0l122-123 100 0c12 0 21-9 21-20 0-11-9-20-21-20l-100 0-122-123c-4-4-9-6-15-6z m-125 0c-5 0-10 2-14 6-8 8-8 21 0 28l94 95-185 0c-11 0-20 9-20 20 0 11 9 20 20 20l185 0-94 94c-8 8-8 21 0 29 8 8 20 8 28 0l129-129c4-4 6-9 6-14 0-6-2-11-6-14l-129-129c-4-4-9-6-14-6z"/>
<glyph glyph-name="d" unicode="&#82;" d="M509 49c0-25-21-46-46-46l-413 0c-25 0-45 21-45 46l0 412c0 26 20 46 45 46l413 0c25 0 46-20 46-46z m-274 36c48 0 83 12 105 34 25 25 37 66 37 123 0 52-11 91-33 115-12 13-28 23-46 29-19 6-43 9-72 9l-78 0 0-310 87 0z m-47 278l36 0c23 0 42-2 56-7 13-5 25-12 33-22 15-19 23-50 23-92 0-49-10-83-30-102-8-8-18-14-29-17-12-4-26-6-44-6l-45 0 0 246z"/>
<glyph glyph-name="cultura" unicode="&#83;" d="M467 32l-325 0c-12 0-21 9-21 20 0 12 9 21 21 21l324 0 0 28-37 0c-11 0-20 9-20 21l0 231c0 11 9 21 20 21l33 0-192 79c-1 1-2 1-3 1-3 2-6 3-10 3-3 0-6-1-8-2l-198-81 33 0c12 0 21-10 21-21l0-231c0-12-9-21-21-21l-37 0 0-28 37 0c12 0 21-9 21-20 0-12-9-21-21-21l-37 0c-23 0-41 18-41 40l0 30c0 22 18 41 41 41l16 0 0 189-16 0c-23 0-41 19-41 41 0 14 7 26 18 34 1 1 2 1 4 2l205 84c8 3 16 5 24 5 10 0 20-2 29-7l199-82c1 0 2-1 3-2 12-7 19-20 19-34 0-23-18-41-40-41l-17 0 0-190 17 0c22 0 41-18 41-40l0-30c-1-22-19-40-41-40z m-95 69l-86 0c-12 0-21 9-21 21l0 231c0 11 9 21 21 21l86 0c11 0 20-10 20-21l0-231c0-12-9-21-20-21z m-66 42l45 0 0 189-45 0z m-78-42l-86 0c-12 0-21 9-21 21l0 231c0 11 9 21 21 21l86 0c11 0 21-10 21-21l0-231c0-12-10-21-21-21z m-65 42l44 0 0 189-44 0z"/>
<glyph glyph-name="cuenta-h" unicode="&#84;" d="M336 3c0 0 0 0 0 0l-224 0c-36 0-66 30-66 67l0 18c0 9 8 17 17 17 9 0 17-8 17-17l0-18c0-18 14-33 32-33l207 0 0 94c0 9 8 17 17 17l93 0 0 293c0 18-14 33-32 33l-285 0c-18 0-32-15-32-33l0-290c0-10-8-17-17-17-10 0-17 7-17 17l0 290c0 37 30 66 66 66l285 1c36 0 66-30 66-67l0-310c0 0 0-1 0-1 0-4-1-8-4-11 0 0 0 0-1 0l-110-111c-3-3-7-5-11-5-1 0-1 0-1 0z m17 111l0-53 53 53z m-98 1c-15 0-27 12-27 27 0 15 12 27 27 27 14 0 26-12 26-27 0-15-12-27-26-27z m0 34c-4 0-7-3-7-7 0-4 3-7 7-7 4 0 7 3 7 7 0 4-3 7-7 7z m0 43c-10 0-17 8-17 17l0 36c0 14 9 27 22 32 18 8 37 23 37 42 0 24-19 43-42 43-24 0-43-19-43-43 0-9-7-17-17-17-9 0-17 8-17 17 0 42 35 77 77 77 42 0 76-35 76-77 0-17-7-34-20-48-13-13-28-21-38-26-1 0-1 0-1 0l0-36c0-9-8-17-17-17z"/>
<glyph glyph-name="cuenta" unicode="&#85;" d="M344 7c0 0 0 0 0 0l-221 0c-36 0-66 29-66 65l0 18c0 10 8 17 17 17 9 0 17-7 17-17l0-18c0-17 14-32 32-32l204 0 0 93c0 9 8 17 17 17l93 0 0 290c0 18-15 32-33 32l-281 0c-18 0-32-14-32-32l0-288c0-9-8-16-17-16-9 0-17 7-17 16l0 288c0 36 30 66 66 66l281 0c37 0 66-30 66-66l0-307c0 0 0-1 0-1 0-4-2-8-5-11l-109-109c0-1 0-1-1-1-3-3-6-4-10-4 0 0-1 0-1 0z m17 109l0-52 52 52z m-19 37l-127 0c-9 0-17 8-17 17l0 129c0 44 36 80 81 80 13 0 27-3 39-10 8-4 11-15 6-23-4-8-15-11-23-6-7 4-14 6-22 6-26 0-47-21-47-47l0-19 80 0c9 0 17-8 17-17 0-10-8-17-17-17l-80 0 0-59 110 0c9 0 17-7 17-17 0-9-8-17-17-17z"/>
<glyph glyph-name="cuenta-1" unicode="&#86;" d="M342 5c0 0 0 0 0 0l-222 0c-37 0-66 30-66 66l0 18c0 10 7 17 16 17 10 0 17-7 17-17l0-18c0-18 15-32 33-32l205 0 0 93c0 9 8 17 17 17l93 0 0 292c0 18-14 32-32 32l-283 0c-18 0-33-15-33-33l0-288c0-10-7-17-16-17-10 0-17 7-17 17l0 289c0 36 29 66 66 66l283 0c36 0 66-30 66-66l0-309c0 0 0-1 0-1 0-4-2-8-5-11l-110-110c-3-3-7-5-11-5 0 0-1 0-1 0z m17 110l0-52 52 52z m-88 37c-46 0-82 37-82 82l0 16-17 0c-9 0-17 8-17 17 0 10 8 17 17 17l17 0 0 17c0 45 36 82 82 82 14 0 28-4 40-10 8-5 11-15 6-23-4-8-15-11-23-7-7 4-15 6-23 6-27 0-48-21-48-48l0-17 49 0c9 0 17-7 17-17 0-9-8-16-17-16l-49 0 0-17c0-27 21-48 48-48 8 0 16 2 24 6 8 4 18 1 22-7 5-8 2-18-6-23-13-7-26-10-40-10z"/>
<glyph glyph-name="correcto" unicode="&#87;" d="M119 74c-19 0-37 7-52 21l-59 59c-7 7-7 18 0 24 7 7 18 7 24 0l60-59c15-15 39-15 54 0l334 334c6 7 17 7 24 0 7-7 7-17 0-24l-334-334c-14-14-33-21-51-21z"/>
<glyph glyph-name="contactanos" unicode="&#88;" d="M345 6l-315 0c-11 0-19 9-19 19 0 56 25 107 69 141 8 6 21 5 27-4 7-8 5-21-3-27-29-23-48-55-53-90l273 0c-5 35-24 67-53 90-8 6-10 18-3 27 6 9 19 10 27 4 44-34 69-85 69-141 0-10-8-19-19-19z m133 130l-106 0c-11 0-20 9-20 20 0 11 9 20 20 20l85 0c-5 35-24 67-53 89-8 7-10 19-3 28 6 8 19 10 27 3 44-33 69-85 69-140 0-11-8-20-19-20z m-291 27c-59 0-107 48-107 108 0 59 48 107 107 107 60 0 108-48 108-107 0-60-48-108-108-108z m0 176c-37 0-68-31-68-68 0-38 31-69 68-69 38 0 69 31 69 69 0 37-31 68-69 68z m151-44c-9 0-17 6-19 15-2 11 5 21 15 23 32 7 55 35 55 67 0 38-31 69-69 69-31 0-58-21-66-51-3-11-13-17-24-14-10 3-16 13-14 24 13 47 55 80 104 80 60 0 108-48 108-108 0-50-36-95-86-105-1 0-3 0-4 0z"/>
<glyph glyph-name="consulta" unicode="&#89;" d="M350 50c-10 0-29 1-50 7-39 12-63 36-70 70-1 7 3 14 10 15 7 2 13-3 15-10 8-39 46-51 72-55-1 2-2 3-3 5-15 22-20 39-17 53 1 6 5 15 17 20 1 0 2 0 3 0 30 6 56 20 77 42 5 5 13 5 18 0 5-5 5-13 1-18-25-25-56-41-90-48-2-1-2-1-2-2-2-10 15-38 33-58 3-3 4-8 2-13-2-4-6-7-11-8 0 0-2 0-5 0z m-153 70c-25 0-51 5-75 14-31 12-57 30-78 55-33 39-47 91-38 141 9 51 41 95 89 123 41 23 97 36 153 35 63-1 117-19 154-50 15-13 22-22 31-35l1-1c4-6 2-14-4-18-5-4-13-2-17 3l-1 1c-9 13-14 20-26 31-70 58-204 54-278 12-42-24-69-61-77-106-8-42 4-86 32-120 49-58 120-60 141-59 7 0 12-6 13-13 0-7-6-12-13-13-2 0-4 0-7 0z m190 187c0 6 2 11 6 14 5 4 11 6 20 7l0 11 13 0 0-11c7-1 13-1 17-3 1 0 2 0 3-1 0 0 0-1 0-2l0-15-13 0c-1 2-1 5-2 9-3 0-7 1-11 1-6 0-10-1-13-3-1-1-2-3-2-5 0-3 1-5 3-6 1-1 5-2 9-4l10-2c9-2 15-5 19-8 3-3 5-8 5-13 0-6-2-11-7-15-4-3-10-6-18-6l0-13-13 0 0 12c-8 0-15 1-20 2-2 1-3 1-4 2 0 0 0 1 0 2l0 15 13 0c1-1 2-4 2-8 3-1 7-1 13-1 6 0 11 1 13 2 2 2 3 4 3 6 0 3-1 5-2 6-2 1-5 2-9 3l-11 3c-9 2-14 4-18 7-4 3-6 8-6 14z m87-107l-112 0c-16 0-30 12-30 28l0 125c0 16 14 28 30 28l112 0c17 0 31-12 31-28l0-125c0-16-14-28-31-28z m-61 19l61 0c6 0 11 4 11 9l0 125c0 5-5 9-11 9l-112 0c-5 0-11-4-11-9l0-125c0-5 5-9 11-9z"/>
<glyph glyph-name="conocer" unicode="&#90;" d="M378 145c-6 0-11 5-11 11l0 20c0 8 5 16 13 19 4 1 19 9 19 21 0 12-9 22-21 22-12 0-22-10-22-22 0-6-4-11-11-11-6 0-10 5-10 11 0 24 19 44 43 44 24 0 43-20 43-44 0-17-12-33-32-41l0-19c0-6-5-11-11-11z m7-86c25 2 48 10 67 24 6 5 7 13 3 18-4 6-12 7-18 3-15-11-34-18-53-19-54-3-100 39-103 92-1 27 8 52 25 71 18 19 42 31 68 32 54 3 100-39 103-92 1-23-6-45-19-63-5-6-3-14 2-18 6-4 14-3 18 2 17 24 26 51 24 80-3 68-61 120-129 117-33-2-64-16-86-41-22-24-33-56-31-89 3-66 58-117 123-117 2 0 4 0 6 0z m7-34c0 9-7 17-17 17l-290 0c-18 0-33 15-33 33l0 365c0 18 15 33 33 33l189 0 0-117c0-10 8-17 17-17l134 0c7 0 13 4 16 10 3 6 1 14-4 19l-134 134c0 0-1 0-1 0-3 3-6 4-10 5-1 0-1 0-1 0l-206 0c-37 0-67-30-67-67l0-365c0-37 30-67 67-67l290 0c10 0 17 8 17 17z m-84 424l77-77-77 0z m-74-343c0 6-5 11-11 11l-127 0c-6 0-11-5-11-11 0-6 5-11 11-11l127 0c6 0 11 5 11 11z m2 61c0 6-4 11-11 11l-129 0c-6 0-11-5-11-11 0-6 5-11 11-11l130 0c6 0 10 5 10 11z m0 61c0 6-4 11-11 11l-129 0c-6 0-11-5-11-11 0-6 5-11 11-11l130 0c6 0 10 5 10 11z m158-109c0 5-2 10-5 13-1 0-2 1-2 1 0 0-1 1-1 1-3 1-5 2-8 2-9 0-16-8-16-17 0-9 7-16 16-16 9 0 16 7 16 16z"/>
<glyph glyph-name="directorio" unicode="&#48;" d="M390 343c17 0 31 14 31 31l0 26c0 11 9 20 20 20 12 0 21-9 21-20l0-26c0-40-32-72-72-72l-43 0c0 0 0 0 0 0-6-6-13-9-21-9-8 0-15 3-21 9-5 5-9 14-8 22 0 1 0 3 0 4 0 1 1 2 1 3 2 5 4 9 8 12 11 12 29 12 41 0 0 0 0 0 0 0l43 0z m-133-121c27 0 53 7 75 21 10 6 13 19 7 28-6 10-19 13-28 7-16-10-35-15-54-15-57 0-103 46-103 103 0 57 46 103 103 103 50 0 93-36 101-85 0 0 0 0 0 0 1-2 1-4 1-5 1-12 12-20 23-18 11 1 19 11 18 23 0 2-1 4-1 7-12 69-72 119-142 119-79 0-144-65-144-144 0-79 65-144 144-144z m216-92c-16 32-40 61-69 83-9 7-22 5-29-4-7-9-5-21 4-28 44-34 72-84 77-138l-398 0c6 54 33 104 77 138 9 7 11 20 4 29-7 9-20 10-29 3-28-22-52-50-68-83-17-33-26-70-26-108 0-12 9-21 20-21l442 0c11 0 20 9 20 21 0 38-8 74-25 108z"/>
<glyph glyph-name="doble" unicode="&#49;" d="M282 14c-10 0-18 8-18 18l0 278c-3 1-7 4-10 7 0 0 0 0 0 0l-115 116c-9 7-13 18-13 29 0 22 18 40 39 40l235 0c22 0 39-18 39-40 0-10-3-19-9-26-1 0-1-1-1-1l-84-84c-7-7-18-7-26 0-7 8-7 19 0 27l83 82c0 1 1 1 1 2 0 1-2 3-3 3l-99 0 0-433c0-10-8-18-19-18z m-117 451c-1 0-3-1-3-3 0-1 1-2 1-2 1 0 1-1 1-1l100-100 0 106z m-22-451c-11 0-19 8-19 18l0 183c0 10 8 18 19 18 10 0 18-8 18-18l0-183c0-10-8-18-18-18z m-64 0c-10 0-18 8-18 18l0 183c0 10 8 18 18 18 10 0 19-8 19-18l0-183c0-10-9-18-19-18z"/>
<glyph glyph-name="download" unicode="&#50;" d="M445 31l-377 0c-36 0-66 29-66 66l0 109c0 10 9 19 19 19 10 0 19-9 19-19l0-109c0-16 13-28 28-28l376 0c16 0 28 12 28 28l0 109c0 10 9 19 19 19 10 0 19-9 19-19l0-109c0-37-29-66-65-66z m-189 83c-17 0-34 6-47 19l-1 1c0 0 0 0 0 0l-84 84c0 0 0 0 0 1l-1 0c-7 8-11 18-11 28 0 11 4 22 12 29 0 0 0 0 0 0 8 8 18 12 29 12 0 0 0 0 0 0l27 0 0 183c0 11 8 19 19 19 10 0 18-9 18-19l0-202c0-5-2-9-5-13-4-3-8-5-13-5l-46 0c0 0 0 0 0 0-1 0-2 0-3-1 0-1 0-2 0-3 0 0 0-1 0-2 1 0 1 0 1 0l0-1 85-84c0 0 0 0 0 0 11-11 29-11 40 0l1 0c0 0 0 0 0 1l85 84c0 0 0 0 0 1 1 0 1 1 1 2 0 0 0 1-1 2-1 1-2 1-2 1 0 0 0 0-1 0l-45 0c-11 0-19 8-19 19l0 201c0 11 8 19 19 19 10 0 18-9 18-19l0-182 25 0c0 0 0 0 0 0l2 0c0 0 1 0 1 0 10 0 21-5 29-12 7-8 12-18 12-29 0-11-5-21-12-29l-1 0c0 0 0-1 0-1l-84-84-1-1c0 0 0 0 0 0-13-13-30-19-47-19z"/>
<glyph glyph-name="e" unicode="&#51;" d="M508 49c0-25-20-45-45-45l-412 0c-25 0-45 20-45 45l0 412c0 25 20 46 45 46l412 0c25 0 45-21 45-46l0-412z m-154 37l0 32-139 0 0 108 108 0 0 33-108 0 0 104 133 0 4 32-177 0 0-309z"/>
<glyph glyph-name="ecologico" unicode="&#52;" d="M22 47c-3 0-7 1-10 3-8 5-10 17-5 25 21 33 46 60 47 61 5 6 14 8 21 4 105-52 196-31 277 63 47 55 86 148 106 204-35-15-81-23-134-23-88 0-151-15-189-45-34-27-65-72-29-133 22 23 64 63 112 80 18 6 31 10 41 14 31 10 36 11 101 47 9 5 20 2 25-7 4-9 1-19-8-24-68-37-74-39-107-50-10-3-22-7-40-13-59-21-111-86-112-87-3-4-8-6-14-6-5 0-10 2-14 7-45 58-39 107-27 138 10 23 27 43 50 62 44 35 114 52 211 52 118 0 153 42 153 42 5 7 15 9 22 5 8-3 12-12 9-20-2-8-53-177-129-266-36-42-73-70-113-86-27-11-55-17-84-17-36 0-73 9-110 26-9-11-23-28-35-48-4-5-9-8-15-8z"/>
<glyph glyph-name="email" unicode="&#53;" d="M280 2c-73 0-140 29-189 83-47 52-71 122-64 191 6 63 33 120 76 163 22 21 47 38 75 50 29 12 61 19 94 20 123 4 214-72 221-185 3-46-6-91-27-125-20-35-50-57-82-63-4 0-7 0-11 0-22 0-41 12-48 32-3 8-5 21-5 35l0 127c-11 8-26 12-45 12-41 0-75-39-75-85 0-25 9-48 24-63 13-12 31-18 50-17 12 0 22-9 23-21 0-12-9-22-21-22-31-2-60 8-82 29-24 23-38 57-38 94 0 33 12 65 34 89 23 25 53 39 85 39 35 0 62-10 82-30 4-4 7-10 7-16l0-136c0-12 1-20 2-21 1-4 9-3 11-3 39 6 78 62 73 142-6 90-77 148-177 145-109-3-192-83-203-194-5-57 14-115 53-158 41-44 96-69 157-69 62 0 110 17 159 56 9 8 23 6 30-3 8-9 6-23-3-31-57-45-114-65-186-65z"/>
<glyph glyph-name="entretenimiento" unicode="&#54;" d="M275 111c-4 0-7 1-9 3-5 5-4 13 0 17 21 20 48 30 76 30 28 0 55-10 75-29 5-4 5-12 1-16-5-5-12-6-17-1-16 14-37 23-59 23-22 0-43-9-59-24-3-2-6-3-8-3z m-103 115c-37 0-71 19-92 49-4 6-2 13 3 17 5 3 13 2 16-4 17-24 44-38 73-38 30 0 57 15 73 40 4 5 11 7 17 3 5-3 7-10 3-16-20-32-55-51-93-51z m170-200c-70 0-132 44-155 109-3 10 2 20 11 23 10 4 20-1 24-11 18-51 66-85 120-85 70 0 127 57 127 128l0 93c0 0 0 1 0 1 0 13-9 24-22 27 0 0 0 0 0 0-2 0-3 0-5 0-2 0-4 0-5 0l-1 0c0-1 0-1-1-1-22-3-44-6-67-7-10 0-18 7-19 18 0 10 7 18 18 19 21 1 41 3 62 6 0 0 0 1 0 1 9 1 17 1 25 0 29-6 51-32 52-62 0 0 0-1 0-1l0-94c0-91-74-164-164-164z m-170 147c-90 0-164 74-164 164l0 95c0 35 29 63 64 63 4 0 8 0 11-1 1 0 1 0 2 0 28-5 57-7 87-7 30 0 59 2 87 7 1 0 1 0 1 0 4 1 8 1 12 1 4 0 7 0 11-1 0 0 1 0 1 0 29-5 51-31 52-61 0-1 0-1 0-2l0-94c0-90-74-164-164-164z m-100 286c-15 0-27-13-27-27l0-95c0-70 57-127 127-127 70 0 127 57 127 127l0 93c0 1 0 1 0 2 0 13-9 24-22 26-4 1-7 1-10 0-1 0-2 0-2 0-30-5-61-8-93-8-32 0-64 3-94 8-1 0-1 0-2 0-1 1-3 1-4 1z"/>
<glyph glyph-name="envios" unicode="&#55;" d="M147 138c-37 0-67-30-67-67 0-37 30-67 67-67 36 0 66 30 66 67 0 37-30 67-66 67z m0-90c-13 0-23 11-23 23 0 12 10 23 23 23 12 0 22-11 22-23 0-12-10-23-22-23z m349 82l-11-5c-2-1-4-1-6-1-5 0-11 3-13 9-3 6 0 14 6 18l-81 197-184-76 53-127c5-13 15-23 27-28 13-5 27-5 39 0l90 37c11 5 24-1 29-12 5-11-1-24-12-29l-90-37c-12-5-24-7-36-7-13 0-25 2-37 7-23 10-42 29-51 52l-135 326c-1 2-2 3-4 3l-51 0c-12 0-22 10-22 22 0 12 10 22 22 22l51 0c20 0 37-12 45-30l71-173 197 82c3 2 7 2 11 0 3-1 6-4 8-8l92-223c3-8 0-16-8-19z"/>
<glyph glyph-name="etiqueta" unicode="&#56;" d="M248 6c-111 0-201 91-201 202 0 111 90 201 201 201 111 0 202-90 202-201 0-45-15-87-42-123-7-8-18-10-26-3-9 6-10 18-4 26 22 29 34 63 34 100 0 90-73 164-164 164-91 0-164-74-164-164 0-91 73-164 164-164 35 0 69 11 97 31 8 6 20 5 26-4 6-8 4-20-4-26-35-25-76-39-119-39z m0 74c-12 0-24 2-36 5-26 7-48 23-65 44-6 8-5 20 3 26 8 6 20 5 26-3 12-15 28-26 47-31 35-11 75 2 97 32 6 8 18 10 26 4 8-6 10-18 4-26-16-21-37-36-61-44-13-5-27-7-41-7z m50 354c7 0 12 6 11 13-1 7-7 11-14 11-15-2-31-3-47-3-49 0-80 7-92 13 12 5 43 12 92 12 48 0 79-7 91-12-1-1-3-2-6-3-6-2-10-9-8-15 3-6 9-10 16-7 6 2 26 9 26 25 0 18-23 25-41 29-21 5-49 8-78 8-30 0-58-3-79-8-18-4-41-11-41-29 0-18 23-26 41-30 21-4 49-7 79-7 17 0 34 1 50 3z"/>
<glyph glyph-name="f" unicode="&#57;" d="M508 50c0-25-20-46-46-46l-412 0c-25 0-45 21-45 46l0 412c0 25 20 46 45 46l412 0c26 0 46-21 46-46z m-283 36l0 141 105 0 0 32-105 0 0 105 130 0 4 32-174 0 0-310z"/>
<glyph glyph-name="familia" unicode="&#33;" d="M479 16c-7 0-13 6-13 13l0 101c0 33-15 64-40 84-6 5-6 13-2 19 5 6 13 7 19 2 32-26 50-64 50-105l0-101c0-7-6-13-14-13z m-450 0c-8 0-14 6-14 14l0 157c0 54 24 103 64 136 6 5 15 4 19-2 5-5 4-14-2-18-34-28-54-70-54-116l0-158c0-7-6-13-13-13z m376 1l-157 0c-7 0-13 6-13 13 0 21 9 40 25 53 6 5 14 4 19-2 4-6 3-14-2-19-6-5-11-11-13-19l126 0c-3 8-7 14-13 19-6 5-7 13-2 19 4 6 13 7 19 2 15-13 25-32 25-53 0-7-7-13-14-13z m-225 1l-83 0c-7 0-13 6-13 13l0 33c0 31 14 60 38 80 6 4 14 4 19-2 4-6 3-14-2-19-18-14-28-36-28-59l0-19 69 0c7 0 13-6 13-14 0-7-6-13-13-13z m147 86c-33 0-60 27-60 61 0 33 27 61 60 61 33 0 59-28 59-61 0-34-27-61-59-61z m0 95c-19 0-34-15-34-34 0-19 15-35 34-35 18 0 33 16 33 35 0 19-15 34-33 34z m-142-32c-33 0-59 28-59 61 0 34 26 61 59 61 33 0 60-27 60-61 0-33-27-61-60-61z m0 95c-18 0-33-15-33-34 0-19 15-34 33-34 18 0 33 15 33 34 0 19-15 34-33 34z m178-8c-46 0-83 38-83 85 0 47 37 85 83 85 45 0 83-38 83-85 0-47-38-85-83-85z m0 143c-32 0-57-26-57-58 0-32 25-58 57-58 31 0 56 26 56 58 0 32-25 58-56 58z m-187-67c-46 0-83 38-83 85 0 47 37 85 83 85 45 0 83-38 83-85 0-47-38-85-83-85z m0 143c-31 0-57-26-57-58 0-32 26-58 57-58 31 0 56 26 56 58 0 32-25 58-56 58z"/>
<glyph glyph-name="fast" unicode="&#34;" d="M259 7c-5 0-9 0-14 0-48 3-94 19-132 47-11 7-13 22-6 32 8 11 22 13 33 5 31-22 69-35 108-37 112-6 208 80 214 192 3 55-16 107-52 147-37 41-87 65-141 67-112 6-208-80-214-192-2-46 10-91 37-128 7-11 5-25-6-33-10-7-25-4-32 6-33 46-48 101-45 157 3 67 32 128 82 173 50 45 114 67 180 64 67-4 129-33 173-83 45-49 68-113 64-180-3-67-32-128-82-173-46-42-105-64-167-64z m-104 121c-3 0-7 1-9 2-9 3-15 12-15 21l0 212c0 9 6 18 15 21 8 4 18 2 25-5l101-100 0 84c0 9 5 18 14 22 9 3 19 1 25-6l106-105c5-5 7-11 7-17 0-6-2-12-7-16l-106-106c-6-7-16-9-25-5-9 3-14 12-14 21l0 85-101-101c-4-5-10-7-16-7z m163 179l0-100 50 50z m-140 0l0-100 49 50z"/>
<glyph glyph-name="favoritos" unicode="&#35;" d="M405 23c-4 0-9 1-13 2 0 0-1 0-1 0l-110 45c-10 4-15 16-11 26 4 10 15 15 26 10l107-43-44 122c0 1-1 1-1 2 0 3 0 6 0 9 1 3 2 5 4 8 0 0 1 1 2 2l103 101c0 0 0 0 0 1 0 0 0 0 0 0l-135 0c-8 0-15 5-18 11 0 1-1 2-1 3l-57 134c0 0 0 1-1 1-1 0-1 0-1-1l-55-133c-2-8-10-15-19-15l-136 0c0 0 0 0 0 0 0-1 0-1 0-1l105-104c6-5 7-13 5-20 0-1 0-1 0-2l-44-118 108 43c10 5 22 0 26-10 4-11-1-22-11-26l-111-45c0 0-1 0-1 0-15-5-30-1-41 10-7 7-15 20-8 39 0 0 0 0 0 0l41 110-97 95c0 0 0 0 0 0-11 11-15 27-10 41 5 15 18 25 33 27 1 0 1 0 2 0l125 1 52 125c0 0 0 1 1 1 7 14 21 23 37 22 0 0 0 0 0 0 15 0 29-9 36-23 0 0 0-1 0-1l53-125 124 0c1 0 2 0 3 0 15-2 27-12 32-27 0 0 0 0 0 0 5-15 1-30-10-41l-94-93 41-112c7-19-1-32-8-39-8-8-18-12-28-12z"/>
<glyph glyph-name="flecha-izquierda-derecha" unicode="&#36;" d="M123 78c-9 0-18 3-25 10 0 0 0 0 0 0l0 1-77 76 0 0c0 0 0 1 0 1-11 11-17 25-17 41 0 15 6 29 17 40l0 1c0 0 0 0 0 0l77 77c13 13 35 13 49 0 6-7 10-16 10-25l0-27 213 0c4 0 7-1 10-4 3-3 4-6 4-10l0-39 0-2c0 0 0-1 0-1 0-1 0-2 2-4 2-2 5-2 8 0 0 0 0 0 0 1l77 77c6 5 9 12 9 20 0 8-3 15-9 21 0 0 0 0 0 0l-1 0-76 76 0 1c0 0 0 0-1 0-1 2-3 2-4 2-1 0-2 0-4-2-1-1-1-2-1-4 0 0 0 0 0 0l0-41c0-8-7-15-15-15l-182 0c-8 0-14 7-14 15 0 7 6 14 14 14l168 0 0 25c0 0 0 0 0 0l0 2c0 9 4 18 10 25 7 6 15 10 25 10 9 0 17-4 23-10l1 0c0 0 0-1 0-1l77-76c0-1 0-1 0-1l1 0c11-11 17-26 17-41 0-15-6-30-17-40l-1-1-76-76c0 0 0-1 0-1l-1 0c-13-13-35-13-48 0-7 7-10 15-10 25l0 2c0 0 0 0 0 0l0 25-213 0c-4 0-8 1-10 4-3 3-5 6-5 10l0 41c0 0 0 0 0 1 0 1 0 3-1 4-3 2-6 2-9 0l-77-78c0 0 0 0 0 0-5-5-8-12-8-20 0-8 3-15 8-21l0 0c1 0 1 0 1 0l76-77c1 0 1 0 1 0l0-1c2-2 6-2 8 1 2 1 2 3 2 4 0 0 0 0 0 0l0 3 0 39c0 8 6 14 14 14l183 0c8 0 14-6 14-14 0-8-6-15-14-15l-169 0 0-25c0 0 0 0 0 0l0-2c0-9-4-18-10-25-7-7-16-10-24-10z"/>
<glyph glyph-name="flecha-izquierda" unicode="&#37;" d="M194 73c-10 0-19 3-26 11l-1 0c0 0 0 0 0 0l-145 145c0 0 0 0 0 0l-1 1c-12 12-18 27-18 44 0 17 7 33 18 44 0 1 1 1 1 1l0 0 145 145c0 0 0 0 0 0l1 1c7 6 16 10 26 10 9 0 19-4 26-11 7-7 11-16 11-26l0-3c0 0 0 0 0 0l0-66 263 0c8 0 15-7 15-15 0-9-7-16-15-16l-279 0c-8 0-15 7-15 16l0 83c0 0 0 1 0 1 0 1 0 3-2 4-1 2-3 2-4 2-1 0-3 0-5-2 0 0 0 0-1-1l-144-144c0 0 0 0 0 0l-1-1c-6-6-9-14-9-22 0-9 3-16 9-22 0-1 0-1 0-1l1 0 145-145 0 0c0 0 0 0 0 0 3-3 7-3 9 0 2 1 2 3 2 4 0 0 0 0 0 1l0 2 0 82c0 4 2 8 4 11 3 2 7 4 11 4l279 0c9 0 16-7 16-15 0-9-7-16-16-16l-263 0 0-66c0 0 0 0 0 0l0-3c0-10-4-19-11-26-7-8-17-11-26-11z"/>
<glyph glyph-name="flecha-derecha" unicode="&#38;" d="M318 67c-9 0-19 4-26 11-7 8-11 17-11 27l0 2c0 0 0 1 0 1l0 66-263 0c-8 0-15 7-15 15 0 9 7 16 15 16l279 0c4 0 8-2 11-5 2-3 4-7 4-11l0-81 0-3c0 0 0 0 0 0 0-1 0-3 2-5 2-2 6-2 9 0l0 1 145 144 0 1c0 0 0 0 1 0 6 6 9 14 9 23 0 8-3 16-9 22-1 0-1 0-1 0l0 1-145 144 0 1c-3 2-7 2-9 0-1-2-2-4-2-5 0 0 0 0 0 0l0-84c0-9-7-16-15-16l-279 0c-8 0-15 7-15 16 0 9 7 16 15 16l263 0 0 65c0 0 0 0 0 1l0 2c0 10 4 19 11 27 15 14 38 14 53 0 0 0 0 0 0 0l0-1 145-145c0 0 0 0 0 0l1 0c11-12 18-28 18-45 0-16-7-32-18-43l-1-1c0 0 0 0 0 0l-145-146c-8-7-17-11-27-11z"/>
<glyph glyph-name="flecha-arriba-izquierda" unicode="&#39;" d="M364 2c-5 0-9 2-13 5l-212 212-52-53c-1 0-1 0-1 0l-2-2c-8-8-18-13-30-13-23 0-42 19-42 42l0 1c0 0 0 0 0 0l0 234c0 0 0 0 0 1 0 39 32 71 71 71l234 0c0 0 0 0 1 0l0 0c24 0 42-19 42-43 0-11-4-22-12-30l-2-2-54-53 212-212c7-7 7-18 0-25-7-7-18-7-25 0l-224 224c-3 4-5 8-5 13 0 5 1 9 5 12l66 66 2 2c0 0 0 0 0 0 1 1 2 3 2 5 0 4-3 7-7 7 0 0 0 0 0 0l-235 0c-20 0-36-16-36-35l0-1c0 0 0 0 0 0l0-233c0-1 0-1 0-1 0-4 3-7 7-7 3 0 4 1 5 2 0 0 1 0 1 0l67 67c3 4 8 6 12 6 5 0 10-2 13-6l224-224c7-7 7-18 0-25-3-3-8-5-12-5z"/>
<glyph glyph-name="flecha-arriba-derecha" unicode="&#40;" d="M152 7c-5 0-9 2-13 5-6 7-6 18 0 25l221 220c7 7 18 7 25 0l66-66c0 0 0 0 0 0 1-1 3-2 5-2 4 0 7 3 7 6l0 232c0 9-3 18-10 24-7 7-16 11-25 11l-231 0c-4 0-7-3-7-7 0-3 1-4 2-5 0 0 0 0 0-1l2-2 65-64c3-3 5-8 5-12 0-5-2-9-5-12l-221-221c-7-7-18-7-24 0-7 7-7 18 0 25l208 208-53 52c0 0 0 0 0 0l-2 2c-8 8-12 19-12 30 0 23 19 42 42 42l231 0c19 0 36-8 50-21 13-13 20-31 20-49l0-232c0-23-19-41-42-41-11 0-22 4-30 12l-1 2c0 0-1 0-1 0l-52 52-208-208c-3-3-8-5-12-5z"/>
<glyph glyph-name="flecha-arriba-abajo-diagonal" unicode="&#41;" d="M263 5l-116 0c-34 0-62 27-62 61l0 1c0 0 0 0 0 1l0 115c0 0 0 0 0 1l0 0c0 20 17 36 37 36 10 0 19-4 26-11l2-1 18-19 162 161c2 3 6 5 10 5 4 0 8-2 11-5l31-31c0 0 0 0 0 0 1-1 3-2 5-2 3 0 6 3 6 6 0 0 0 0 0 1l0 115c0 1 0 1 0 1 0 17-14 31-31 31l-1 0c0 0 0 0 0 0l-116 0c0 0 0 0-1 0-3 0-6-3-6-6 0-2 1-3 2-4 0-1 0-1 1-1l1-2 30-29c6-6 6-16 0-22l-138-138c-6-6-16-6-22 0-6 6-6 16 0 22l127 127-18 19c-1 0-1 0-1 0l-1 2c-7 7-11 16-11 26 0 20 16 36 36 36l1 0c0 0 0 0 0 0l117 0c0 0 0 0 0 0 34 0 61-27 62-61l0-1c0 0 0 0 0 0l0-116c0 0 0 0 0 0l0-1c-1-20-17-36-37-36-10 0-19 4-26 11l-2 2c0 0 0 0 0 0l-19 18-161-161c-3-2-7-4-11-4-4 0-8 2-11 4l-31 32c0 0 0 0 0 0-1 1-3 2-4 2-4 0-6-3-6-6 0-1 0-1 0-1l0-116c0 0 0 0 0-1 0-17 14-31 31-31l117 0c0 0 0 0 0 0 4 0 6 3 6 7 0 1 0 3-2 4 0 0 0 0 0 0l-1 2-30 30c-6 6-6 15 0 21l138 138c6 6 16 6 22 0 6-6 6-15 0-21l-128-128 21-20c7-7 11-16 11-26 0-21-16-37-36-37l-1 0c0 0 0 0-1 0z"/>
<glyph glyph-name="flecha-arriba-abajo" unicode="&#42;" d="M308 3c-16 0-30 7-41 17l0 1c0 0-1 0-1 0l-76 76c0 1 0 1 0 1l-1 0c-13 13-13 35 0 49 0 0 0 0 0 0 7 6 16 10 25 10l2 0c0 0 0 0 0 0l25 0 0 213c0 4 2 8 4 11 3 2 7 4 10 4l42 0c0 0 0 0 0 0 1 0 3 0 4 1 3 3 3 6 0 9l-77 77c0 0 0 0 0 0l0 0c-12 11-30 12-41 0l-1 0c0 0 0 0 0 0l-77-77c0 0 0 0 0 0l0-1c-2-1-2-3-2-4 0-1 0-2 2-4 1-1 3-2 4-2 0 0 0 0 0 0l3 0 39 0c8 0 14-6 14-14l0-183c0-8-6-14-14-14-8 0-15 6-15 14l0 169-25 0c0 0 0 0 0 0l-2 0c-9 0-18 3-25 10-6 6-10 15-10 24 0 9 4 18 10 25 0 0 0 0 0 0l1 0 76 77 1 0c0 0 0 0 0 0 23 23 59 23 82 0 0 0 0 0 0 0l1 0 77-77c13-14 13-36 0-49-7-6-16-10-25-10l-2 0c0 0 0 0 0 0l-25 0 0-214c0-4-2-7-4-10-3-3-7-4-11-4l-38 0-3 0c0 0 0 0 0 0-1 0-3 0-4-2-3-2-3-6 0-8 0 0 0 0 0 0l0 0 77-77 0 0c0 0 0-1 0-1 6-5 13-8 21-8 8 0 15 3 21 8 0 1 0 1 0 1l0 0 77 77 0 0c0 0 0 0 0 0 2 2 2 4 2 5 0 0 0 2-1 4-2 1-3 1-4 1-1 0-1 0-1 0l-41 0c-8 0-15 7-15 15l0 183c0 8 7 14 15 14 7 0 14-6 14-14l0-169 25 0c0 0 0 0 0 0l2 0c9 0 18-3 25-10 6-6 10-15 10-24 0-9-3-18-10-24l0-1c0 0 0 0-1 0l-76-77c0 0-1 0-1 0l0-1c-11-11-26-17-41-17z"/>
<glyph glyph-name="flecha-arriba" unicode="&#43;" d="M345 5c-8 0-15 7-15 15l0 276c0 8 7 15 15 15l83 0c0 0 1 0 1 0 1 0 3 0 4 2 0 0 0 0 0 0 2 1 2 3 2 4 0 1 0 3-2 5 0 0 0 0 0 0l0 0-144 143c0 0 0 0 0 0l0 1c-6 6-14 9-22 9 0 0 0 0 0 0-9 0-16-3-22-9l-1-1-143-143 0 0c0 0-1 0-1 0-2-3-2-7 0-9 2-2 3-2 5-2 0 0 0 0 0 0l3 0 80 0c4 0 8-2 11-5 3-2 5-6 5-10l0-276c0-8-7-15-16-15-8 0-15 7-15 15l0 260-65 0c0 0-1 0-1 0l-2 0c-10 0-19 4-26 11-15 14-15 37 0 52l0 0c0 0 0 1 0 1l144 144c12 11 27 18 44 18 0 0 0 0 0 0 16 0 32-7 43-18 0 0 1 0 1 0l0-1 143-143c1 0 1 0 1-1l0 0c7-7 11-16 11-26 0-9-4-19-11-26-7-7-16-11-26-11 0 0 0 0 0 0l-3 0c0 0 0 0 0 0l-65 0 0-260c0-8-7-15-16-15z"/>
<glyph glyph-name="flecha-abajo-izquierda" unicode="&#44;" d="M319 18l-226 0c-38 0-69 30-69 68 0 1 0 1 0 1l0 225c0 0 0 1 0 1l0 0c0 23 19 41 41 41 11 0 22-4 29-12l2-2c0 0 0 0 0 0l52-51 204 204c7 7 17 7 24 0 7-7 7-18 0-24l-216-216c-3-4-8-6-12-6-5 0-9 2-12 6l-63 63-2 1c-1 1-1 1-1 1-1 1-2 2-5 2-4 0-7-3-7-7 0 0 0 0 0-1l0-225c0 0 0 0 0 0l0-1c1-19 16-34 35-34l227 0c0 0 0 0 0 0 4 0 7 3 7 6 0 3-2 5-2 5 0 0 0 1-1 1l-2 2-63 63c-3 3-5 8-5 12 0 5 2 9 5 12l216 217c7 6 18 6 25 0 6-7 6-18 0-25l-205-204 52-51c0 0 0 0 0 0l2-2c7-8 12-19 12-30 0-22-18-40-41-40l-1 0c0 0 0 0 0 0z"/>
<glyph glyph-name="flecha-abajo-derecha" unicode="&#45;" d="M430 11l-234 0c-23 0-42 19-42 42 0 11 4 22 12 30l2 2c0 0 0 0 0 1l53 52-211 211c-6 7-6 19 0 25 7 7 18 7 25 0l224-223c3-3 5-8 5-13 0-4-2-9-5-12l-66-65-2-2c0-1 0-1 0-1-1-1-2-2-2-5 0-4 3-7 7-7l234 0c10 0 19 4 25 10 7 7 11 16 11 26l0 234c0 4-3 7-7 7-3 0-5-1-5-2-1 0-1 0-1 0l-67-68c-3-3-8-5-12-5-5 0-9 2-13 5l-223 224c-7 7-7 18 0 25 7 7 18 7 25 0l211-211 53 53c0 0 0 0 0 0l2 2c8 8 18 12 30 12 23 0 42-19 42-42l0-234c0-19-7-37-21-50-13-14-31-21-50-21z"/>
<glyph glyph-name="flecha-abajo" unicode="&#46;" d="M258 0c-17 0-33 6-45 18l0 1c-1 0-1 0-1 0l-146 146c-15 15-15 39 0 54 7 7 17 11 27 11l2 0c0 0 0 0 0 0l67 0 0 265c0 8 7 15 16 15 8 0 15-7 15-15l0-281c0-4-1-8-4-11-3-3-7-5-11-5l-83 0-2 0c0 0 0 0-1 0 0 0-2 0-4-1-2-3-2-7 0-9l146-147 1 0c0 0 0 0 0 0 6-6 14-10 23-10 8 0 16 4 22 10 0 0 0 0 0 0l1 0 145 146 0 0c1 0 1 0 1 1 2 1 2 3 2 4 0 1 0 3-2 4 0 0 0 1 0 1-2 1-3 1-4 1-1 0-1 0-1 0l-84 0c-9 0-16 7-16 16l0 281c0 8 7 15 16 15 9 0 15-7 15-15l0-265 67 0c0 0 0 0 0 0l2 0c10 0 20-4 27-11 7-8 11-17 11-27 0-10-4-19-10-26l-1-1c0 0 0 0 0 0l-146-146c0 0 0 0 0 0l-1-1c-12-12-28-18-44-18z"/>
<glyph glyph-name="firma" unicode="&#47;" d="M311 114c-2 0-5 1-6 3-3 3-4 7-3 11l26 61c1 1 2 2 2 3 0 0 0 0 1 0l99 100c2 2 5 3 7 3 3 0 5-1 7-3l36-36c4-4 4-10 0-14l-100-100c0 0-1-1-3-2 0 0 0 0 0 0l-62-25c-1 0-2-1-4-1z m30 54l-12-26 27 11z m10 17l23-22 86 86-23 23z m-92-71l-115 0c-5 0-9 5-9 10 0 5 4 10 9 10l115 0c5 0 9-5 9-10 0-5-4-10-9-10z m166-57l0 65c0 9-7 15-15 15-8 0-15-6-15-15l0-65c0-3-3-6-6-6l-281 0c-4 0-7 2-7 6l0 403c0 3 3 6 7 6l281 0c3 0 6-3 6-6l0-136c0-8 7-15 15-15 8 0 15 7 15 15l0 136c0 20-16 36-36 36l-281 0c-20 0-36-16-36-36l0-403c0-20 16-36 36-36l281 0c20 0 36 16 36 36z"/>
<glyph glyph-name="fax" unicode="&#58;" d="M479 217c9 0 17 8 17 17l0 130c0 20-17 36-37 36l-74 0 0 62c0 20-16 37-36 37l-183 0c-20 0-36-17-36-37l0-62-74 0c-20 0-37-16-37-36l0-182c0-20 17-37 37-37l74 0 0-80c0-20 16-36 36-36l183 0c20 0 36 16 36 36l0 80 74 0c20 0 37 17 37 37 0 9-8 17-17 17-10 0-17-8-17-17 0-2-1-3-3-3l-74 0 0 42c0 9-8 17-17 17l-221 0c-9 0-17-8-17-17l0-42-74 0c-2 0-3 1-3 3l0 182c0 1 1 3 3 3l74 0 0-30-13 0c-9 0-17-8-17-17 0-9 8-17 17-17l281 0c9 0 17 8 17 17 0 9-8 17-17 17l-13 0 0 30 74 0c2 0 3-2 3-3l0-130c0-9 7-17 17-17z m-315-13l187 0 0-139c0-1-1-3-2-3l-183 0c-1 0-2 2-2 3z m0 133l0 125c0 2 1 3 2 3l183 0c1 0 2-1 2-3l0-125z m30-245c0 6 5 10 11 10l105 0c6 0 11-4 11-10 0-6-5-11-11-11l-105 0c-6 0-11 5-11 11z m0 82c0 6 5 10 11 10l105 0c6 0 11-4 11-10 0-6-5-11-11-11l-105 0c-6 0-11 5-11 11z m0-41c0 6 5 10 11 10l105 0c6 0 11-4 11-10 0-6-5-11-11-11l-105 0c-6 0-11 5-11 11z m127 309c0-6-5-11-11-11l-105 0c-6 0-11 5-11 11 0 6 5 11 11 11l105 0c6 0 11-5 11-11z m0-41c0-6-5-11-11-11l-105 0c-6 0-11 5-11 11 0 6 5 11 11 11l105 0c6 0 11-5 11-11z m0-41c0-6-5-11-11-11l-105 0c-6 0-11 5-11 11 0 6 5 11 11 11l105 0c6 0 11-5 11-11z"/>
<glyph glyph-name="fotografia" unicode="&#59;" d="M467 65l-356 0c-9 0-18 3-25 8-8 8-14 19-14 30l1 143 0 118c0 21 17 38 38 38l357 0c21 0 38-17 38-39l-1-260c0-21-17-38-38-38z m-356 304c-2 0-5-3-5-5l0-118c0 0 0 0 0 0l0-143c0-2 0-3 1-4 1-1 2-1 4-1l356 0c3 0 5 2 5 5l1 261c0 2-2 5-5 5z m271-243l-234 0c-6 0-11 3-14 7-3 5-4 11-1 16l73 177c2 6 8 10 15 10 7 0 13-4 15-10l46-111c4-8 0-18-9-21-8-4-18 0-21 9l-31 73-48-117 184 0-27 63c-4-8-14-12-22-9-8 4-12 14-9 22l15 35c3 6 9 10 16 10 6 0 12-4 15-10l52-121c2-5 2-11-1-16-3-5-9-7-14-7z m-357 20c-10 0-17 7-17 16l1 143 0 118c0 21 17 38 38 38l357 0c9 0 16-8 16-17 0-9-7-16-16-16l-357 0c-3 0-5-3-5-6l0-117-1-143c0-9-7-16-16-16z m372 80c-7 0-14 5-16 13-2 9 4 18 13 20 8 2 14 7 17 15 6 13 0 28-13 34-11 4-23 1-30-8-6-7-16-8-23-2-7 6-8 16-3 23 17 20 44 27 69 17 29-13 43-47 31-77-7-17-23-30-41-34-1-1-3-1-4-1z"/>
<glyph glyph-name="frio" unicode="&#60;" d="M259 10c-11 0-20 9-20 20l0 94-76-76c-8-8-20-8-28 0-8 7-8 20 0 28l104 104 0 54-45 0-104-104c-8-8-20-8-28 0-8 7-8 20 0 28l76 76-103 0c-11 0-20 8-20 19 0 11 9 20 20 20l103 0-76 76c-8 8-8 20 0 28 7 8 20 8 28 0l104-104 45 0 0 60-104 104c-8 8-8 20 0 28 8 7 20 7 28 0l76-76 0 88c0 11 9 20 20 20 10 0 19-9 19-20l0-88 76 76c8 8 20 8 28 0 8-8 8-20 0-28l-104-104 0-60 63 0 104 104c7 8 20 8 27 0 8-8 8-20 0-28l-76-76 86 0c11 0 20-9 20-20 0-10-9-19-20-19l-86 0 76-76c8-8 8-20 1-28-8-8-21-8-28 0l-105 104-62 0 0-54 104-104c8-8 8-21 0-28-7-8-20-8-27 0l-76 76 0-94c-1-11-9-20-20-20z"/>
<glyph glyph-name="g" unicode="&#61;" d="M509 48c0-25-20-45-45-45l-414 0c-25 0-46 20-46 45l0 414c0 25 21 46 46 46l413 0c26 0 46-21 46-46l0-414z m-337 70c23-26 59-39 109-39 14 0 29 1 45 3 16 3 29 5 39 9l0 151-92 0 0-32 53 0 0-95c-14-2-28-3-42-3-38 0-65 10-81 31-16 20-24 52-24 95 0 46 9 80 28 101 16 19 42 29 77 29 22 0 44-3 65-9l6 31c-23 7-48 11-75 11-43 0-77-11-100-35-29-28-43-72-43-131 0-51 12-90 35-117z"/>
<glyph glyph-name="gprs" unicode="&#62;" d="M148 8c-33 0-61 11-81 32-19 20-29 48-29 81 0 30 11 58 31 79 21 21 49 32 79 32 23 0 40-2 54-7 12-4 18-17 14-28-4-12-17-18-28-14-10 3-22 5-40 5-38 0-66-29-66-67 0-44 24-69 66-69 9 0 17 1 25 2l0 42-24 0c-13 0-23 10-23 22 0 12 10 22 23 22l46 0c12 0 22-10 22-22l0-81c0-10-6-18-15-21-18-6-35-8-54-8z m317 137c-12 0-22 10-22 22 0 159-130 288-288 288-13 0-23 10-23 22 0 13 10 23 23 23 88 0 172-35 235-98 62-62 97-146 97-235 0-12-10-22-22-22z m-126 3c-13 0-23 10-23 22 0 90-72 162-162 162-12 0-22 10-22 23 0 12 10 22 22 22 114 0 207-93 207-207 0-12-10-22-22-22z"/>
<glyph glyph-name="gps" unicode="&#63;" d="M84 12c-15 0-30 6-41 17l-17 17c-11 11-17 26-17 41 0 16 6 31 17 42l82 82c11 11 26 17 41 17 15 0 28-5 39-15l9 10-24 23c-11 11-17 26-17 41 0 16 6 30 17 41l11 11c11 12 26 18 41 18 16 0 31-6 42-18l23-23 11 11c-9 10-14 24-14 38 0 16 6 31 17 42l82 82c11 11 26 17 41 17 16 0 30-6 41-17l17-17c11-11 17-26 17-41 0-16-6-31-17-42l-82-82c-11-11-26-17-41-17-9 0-17 8-17 17 0 9 8 17 17 17 6 0 13 2 17 7l83 82c4 5 7 11 7 17 0 7-3 13-7 18l-17 17c-5 5-11 7-18 7-6 0-13-2-17-7l-83-82c-4-5-7-11-7-18 0-6 3-12 7-17l9-9c0 0 1 0 1 0 6-7 6-18 0-24l-23-23 24-24c11-10 17-25 17-41 0-15-6-30-17-41l-12-11c-22-23-59-23-82 0l-23 24-10-10c19-22 18-56-4-77l-82-83c-11-11-26-17-41-17z m65 182c-6 0-12-2-17-7l-82-82c-5-5-8-11-8-18 0-6 3-12 8-17l17-17c9-10 25-10 34 0l83 82c9 10 9 25 0 35l-17 17c-5 5-11 7-18 7z m76 129c-6 0-12-3-17-7l-11-11c-5-5-7-11-7-18 0-6 3-12 7-17l71-71c10-9 25-9 35 0l11 11c4 5 7 11 7 17 0 7-3 13-7 18l-35 35c0 0-1 0-1 0 0 0 0 0 0 0l-35 36c-5 4-11 7-18 7z"/>
<glyph glyph-name="guia" unicode="&#64;" d="M267 17l-170 0c-33 0-59 26-59 59l0 417c0 8 7 15 15 15 8 0 15-7 15-15l0-417c0-16 13-29 29-29l171 0c8 0 15-7 15-15 0-8-7-15-16-15z m-8 180l-128 0c-19 0-35 16-35 35l0 114c0 8 7 15 15 15 8 0 15-7 15-15l0-114c0-3 2-6 5-6l128 0c3 0 6 3 6 6l0 138c0 3-3 6-6 6l-128 0c-19 0-35 15-35 35l0 17c0 20 16 36 35 36l161 0c33 0 59-27 59-59l0-145c0-8-7-15-15-15-8 0-15 7-15 15l0 145c0 16-13 29-29 29l-161 0c-3 0-6-3-6-6l0-17c0-3 3-6 6-6l128 0c19 0 35-15 35-35l0-138c0-19-16-35-35-35z m138-102l0 16c18 7 29 21 29 36 0 21-17 38-38 38-21 0-38-17-38-38 0-5 4-9 9-9 6 0 10 4 10 9 0 11 8 19 19 19 10 0 19-8 19-19 0-11-14-17-18-19-7-2-11-9-11-16l0-17c0-6 4-10 10-10 5 0 9 4 9 10z m-8-84c-57 0-104 44-107 101-2 29 8 56 27 77 19 21 45 34 74 35 59 3 109-42 112-101 1-24-6-48-21-68-3-5-9-5-13-2-5 3-5 9-2 13 12 16 18 36 17 56-3 49-44 86-92 83-24-1-45-11-61-29-15-17-23-39-22-63 3-48 44-85 92-82 17 1 34 6 47 17 4 3 10 2 14-2 3-5 2-11-2-14-17-12-37-19-58-21-2 0-4 0-5 0z m-1 37c-8 0-15 7-15 14 0 8 7 15 15 15 2 0 4-1 6-2 1 0 1 0 1-1 1 0 2 0 2-1 3-2 5-6 5-11 0-7-7-14-14-14z"/>
<glyph glyph-name="h" unicode="&#91;" d="M509 49c0-25-21-45-46-45l-414 0c-25 0-45 20-45 45l0 414c0 25 20 46 45 46l414 0c25 0 46-21 46-46l0-414z m-325 37l0 141 142 0 0-141 41 0 0 311-41 0 0-137-142 0 0 137-41 0 0-311 41 0z"/>
<glyph glyph-name="home" unicode="&#93;" d="M397 17l-51 0c-24 0-44 20-44 44l0 148c0 6-5 10-10 10l-70 0c-6 0-11-4-11-10l0-148c0-24-19-44-44-44l-49 0c-24 0-44 20-44 44l0 148c0 6-5 10-10 10l-12 0c-24 0-44 20-44 44 0 11 4 21 11 29 1 0 1 1 1 1l189 188c13 13 30 20 48 20 18 0 36-7 49-20l186-186c1-1 1-1 1-1 9-8 13-19 13-31 0-24-19-43-44-43l-11 0c-6 0-11-5-11-11l0-86c0-9-7-16-16-16-9 0-17 7-17 16l0 86c0 24 20 44 44 44l11 0c6 0 11 4 11 10 0 3-1 5-3 7 0 0 0 0 0 1l-188 187c-7 6-15 10-25 10-9 0-18-4-25-10l-187-187c0-1 0-1 0-1-2-2-3-4-3-7 0-6 4-10 10-10l12 0c24 0 44-20 44-44l0-148c0-6 4-11 10-11l49 0c6 0 11 5 11 11l0 148c0 24 20 44 44 44l70 0c24 0 43-20 43-44l0-148c0-6 5-11 11-11l51 0c6 0 10 5 10 11 0 9 8 17 17 17 9 0 17-8 17-17 0-24-20-44-44-44z"/>
<glyph glyph-name="hspda" unicode="&#94;" d="M186 9c-11 0-19 9-19 19l0 74-85 0 0-74c0-10-8-19-19-19-10 0-19 9-19 19l0 181c0 10 9 19 19 19 11 0 19-9 19-19l0-69 85 0 0 69c0 10 9 19 19 19 11 0 19-9 19-19l0-181c0-10-8-19-19-19z m283 139c-10 0-19 9-19 19 0 165-134 299-299 299-10 0-19 9-19 19 0 11 9 19 20 19 90 0 174-35 238-98 63-64 98-149 98-239 0-10-8-19-19-19z m-129 3c-10 0-19 9-19 19 0 94-76 170-170 170-10 0-19 9-19 19 0 11 9 19 19 19 115 0 208-93 208-208 0-10-8-19-19-19z"/>
<glyph glyph-name="i" unicode="&#95;" d="M508 50c0-25-20-45-46-45l-412 0c-25 0-46 20-46 45l0 413c0 25 21 46 46 46l412 0c26 0 46-21 46-46z m-231 36l0 309-40 0 0-309z"/>
<glyph glyph-name="imagen" unicode="&#96;" d="M62 66c-8 0-15 6-15 15l0 23-28 0c-8 0-15 7-15 15 0 8 7 15 15 15l28 0 0 260c0 9 4 18 10 25 7 6 16 10 25 10l354 0 0 28c0 8 6 15 15 15 8 0 14-7 14-15l0-28 29 0c8 0 14-7 14-15 0-8-6-15-14-15l-29 0 0-260c0-19-16-35-35-35l-316 0c-8 0-15 7-15 15 0 8 6 15 15 15l316 0c3 0 6 2 6 5l0 261-354 0c-2 0-3-1-4-2 0-1-2-2-2-4l0-313c0-9-6-15-14-15z m322 100l-102 0c-8 0-15 6-15 15l0 101c0 8 7 15 15 15l102 0c8 0 14-7 14-15l0-101c0-9-6-15-14-15z m-87 29l72 0 0 72-72 0z m-128 44c-38 0-69 31-69 69 0 37 31 68 69 68 38 0 69-31 69-68 0-38-31-69-69-69z m0 108c-22 0-39-18-39-39 0-22 17-40 39-40 22 0 39 18 39 40 0 21-17 39-39 39z"/>
<glyph glyph-name="imei" unicode="&#123;" d="M142 162l-11 0 0 16 48 0 0-16-11 0 0-82 11 0 0-16-48 0 0 16 11 0 0 82z m190 16l0-16-12 0 0-82 12 0 0-16-46 0 0 16 11 0 0 49-24-40-16 0c-3 0-4 1-6 3l-23 38 0-50 12 0 0-16-44 0 0 16 11 0 0 82-11 0 0 16 21 0c6 0 8-1 11-6l36-62 36 62c3 5 5 6 12 6z m89-98c0 5 2 14 3 17l17 0 0-30c0-3-1-3-7-3l-86 0 0 16 12 0 0 82-12 0 0 16 85 0c6 0 7 0 7-3l0-29-16 0c-2 3-4 11-4 16l-35 0 0-31 28 0c4 0 4 0 4-2l0-16-32 0 0-33 36 0z m47 82l-11 0 0 16 48 0 0-16-11 0 0-82 11 0 0-16-48 0 0 16 11 0z m-287 42l-102 0c-15 0-28 13-28 28l0 91c0 6 5 12 12 12 6 0 12-6 12-12l0-91c0-2 2-4 4-4l102 0c2 0 4 2 4 4l0 110c0 2-2 4-4 4l-102 0c-15 0-28 13-28 29l0 13c0 16 13 29 28 29l128 0c26 0 47-21 47-47l0-147c0-7-5-12-12-12-6 0-12 5-12 12l0 147c0 13-10 23-23 23l-128 0c-2 0-4-2-4-5l0-13c0-3 2-5 4-5l102 0c15 0 28-13 28-28l0-110c0-15-13-28-28-28z m-88-143l-41 0c-26 0-47 21-47 47l0 332c0 6 5 12 12 12 6 0 12-6 12-12l0-332c0-13 10-23 23-23l41 0c7 0 12-5 12-12 0-6-5-12-12-12z"/>
<glyph glyph-name="impresora" unicode="&#124;" d="M493 210c8 0 15 7 15 15l0 138c0 20-16 35-36 35l-82 0 0 70c0 19-16 36-35 36l-194 0c-20 0-36-17-36-36l0-70-82 0c-20 0-36-15-36-35l0-194c0-20 16-36 36-36l82 0 0-88c0-19 16-36 36-36l194 0c19 0 35 17 35 36l0 88 82 0c20 0 36 16 36 36 0 8-7 15-15 15-8 0-15-7-15-15 0-3-2-6-6-6l-82 0 0 48c0 8-6 14-15 14l-235 0c-8 0-15-6-15-14l0-48-82 0c-3 0-6 3-6 6l0 194c0 3 3 6 6 6l82 0 0-43-17 0c-8 0-14-7-14-15 0-8 6-15 14-15l299 0c8 0 15 7 15 15 0 8-7 15-15 15l-17 0 0 43 82 0c4 0 6-3 6-6l0-138c0-8 7-15 15-15z m-338-14l205 0 0-151c0-3-2-5-5-5l-194 0c-3 0-6 2-6 5z m0 130l0 142c0 3 2 5 6 5l194 0c3 0 5-2 5-5l0-142z m37-166c0 6 4 10 9 10l113 0c5 0 9-4 9-10 0-5-4-9-9-9l-112 0c-6 0-10 4-10 9z m0-87c0 6 4 10 9 10l113 0c5 0 9-4 9-10 0-5-4-10-9-10l-112 0c-6 0-10 5-10 10z m0 44c0 5 4 9 9 9l113 0c5 0 9-4 9-9 0-6-4-9-9-9l-112 0c-6 0-10 3-10 9z"/>
<glyph glyph-name="infrarojo" unicode="&#125;" d="M256 48c-10 0-19 4-26 11-7 7-11 17-11 27 0 10 4 19 11 26 7 7 16 11 26 11 10 0 20-4 27-11 7-7 11-16 11-26 0-10-4-20-11-27-7-7-17-11-27-11z m0 45c-2 0-4 0-5-2-2-2-3-4-3-5 0-2 1-4 3-6 1-1 3-2 5-2 2 0 4 1 6 2 1 2 2 4 2 6 0 1 0 3-2 5-2 2-4 2-6 2z m101 78c-4 0-8 2-10 5-25 24-57 37-91 37-34 0-66-13-90-37-6-6-15-6-21 0-6 5-6 15 0 21 30 29 69 46 111 46 42 0 82-17 111-46 6-6 6-16 0-21-2-3-6-5-10-5z m70 69c-4 0-8 2-11 5-42 42-99 66-160 66-60 0-117-24-160-66-5-6-15-6-21 0-5 5-5 15 0 20 49 49 113 75 181 75 69 0 133-26 181-75 6-5 6-15 0-20-3-3-6-5-10-5z m68 70c-4 0-8 1-11 4-125 125-330 125-456 0-5-6-15-6-21 0-5 6-5 15 0 21 34 33 73 59 117 77 42 17 87 26 132 26 46 0 91-9 133-26 43-18 83-44 116-77 6-6 6-15 0-21-3-3-7-4-10-4z"/>
<glyph glyph-name="internet" unicode="&#126;" d="M485 239c-10 2-19-5-20-15-12-85-75-153-155-175 9 14 17 27 20 34 15 30 41 92 41 171 0 80-25 142-39 171-9 19-41 78-78 78-66 0-129-26-176-73-47-47-73-109-73-176 0-66 26-129 73-176 47-46 109-72 175-73 0 0 1 0 1 0 1 0 1 0 1 0 60 1 118 23 163 62 45 39 74 93 82 152 2 10-5 19-15 20z m-185-135c-20-42-39-60-46-62-6 3-25 20-44 62-12 24-30 71-33 133l158 0c-4-61-23-109-35-133z m1 303c11-24 30-72 33-135l-157 0c3 63 21 111 32 135 20 44 40 59 45 60 5-1 26-16 47-60z m-104 52c-8-12-15-25-19-34-13-27-34-81-37-153l-99 0c7 89 71 164 155 187z m-155-222l99 0c3-71 25-126 39-154 3-7 10-20 19-34-85 22-149 96-157 188z m408 110c16 0 29 13 29 30 0 16-13 29-29 29-16 0-30-13-30-29 1-17 14-30 30-30z m0 36c4 0 6-3 6-6 0-4-2-7-6-7-4 0-7 3-7 7 0 3 3 6 7 6z m30-52c-16 0-29-14-29-30 0-16 13-29 29-29 17 0 30 13 30 29 0 16-13 30-30 30z m0-36c-3 0-6 2-6 6 0 4 3 7 6 7 4 0 7-3 7-7 0-4-3-6-7-6z m-83 111c16 0 29 13 29 29 0 17-13 30-29 30-16 0-30-13-30-30 0-16 14-29 30-29z m0 36c3 0 6-3 6-6 0-4-3-7-6-7-4 0-7 3-7 7 0 3 3 6 7 6z"/>
<glyph glyph-name="intervalos" unicode="&#92;" d="M164 421l0 41c0 8 6 14 14 14 8 0 15-6 15-14l0-41c0-8-7-14-15-14-8 0-14 6-14 14z m-81-45c3-3 6-4 10-4 4 0 8 1 10 4 6 6 6 15 0 21l-28 28c-6 5-15 5-21 0-5-6-5-15 0-21z m180-4c3 0 7 1 10 4l28 28c6 6 6 15 0 21-5 5-14 5-20 0l-28-29c-6-5-6-14 0-20 2-3 6-4 10-4z m-191-71c0 8-6 14-14 14l-40 0c-8 0-15-6-15-14 0-8 7-14 15-14l40 0c8 0 14 6 14 14z m11-74l-29-29c-5-5-5-15 0-20 3-3 7-4 11-4 3 0 7 1 10 4l28 28c6 6 6 15 0 21-5 5-15 5-20 0z m326 56c-9 46-48 81-96 81-16 0-32-4-46-12-18 32-53 51-90 50-56-2-100-49-98-104 0-18 5-35 15-50 2-5 7-7 12-7 3 0 5 1 8 2 7 4 9 13 4 20-6 11-10 23-10 35-2 40 30 74 69 75 28 1 54-14 67-38-15-14-24-32-27-51-1 0-1 0-1 0-54 0-97-44-97-98 0-54 43-98 97-98l68 0c8 0 14 7 14 15 0 8-6 15-14 15l-68 0c-38 0-68 30-68 68 0 38 30 69 68 69 4 0 7-1 11-1 0 0 0 0 1-1 9-1 18-5 26-10 7-4 16-2 20 4 4 7 2 16-4 20-8 5-16 9-25 12 6 31 35 55 68 55 36 0 66-28 68-64 0-2 0-3 0-5 0 0 0 0 0 0 0-6-1-12-3-18-2-8 3-16 10-18 8-2 16 2 18 10 2 5 3 10 3 15 38 0 68-31 68-68 0-38-31-69-69-69l-54 0c-8 0-14-7-14-15 0-8 6-14 14-14l54 0c54 0 98 44 98 98 0 53-44 97-97 97z"/>
<glyph glyph-name="j" unicode="&#57344;" d="M506 51c0-25-20-45-45-45l-411 0c-25 0-45 20-45 45l0 411c0 25 20 45 45 45l411 0c25 0 45-20 45-45z m-314 34c11-3 22-4 34-4 29 0 50 7 61 19 12 14 18 36 18 68l0 227-40 0 0-228c0-18-2-30-7-38-3-6-8-10-13-12-6-2-14-3-24-3-11 0-22 0-33 2z"/>
<glyph glyph-name="juegos" unicode="&#57345;" d="M154 319c-2-14-14-24-28-24-1 0-1 0-3 0l0 0c-7 1-14 4-18 10-5 6-7 13-6 20 0 5 2 9 4 13 1 1 2 1 3 2 0 1 1 2 2 3 6 5 14 8 21 7l1 0c14-2 25-16 24-31z m254 19c-1 1-1 1-2 2-1 1-2 2-3 3-6 5-13 8-21 7l0 0c-15-2-26-16-24-31l0 0c1-14 13-24 27-24 1 0 2 0 3 0l0 0c15 1 26 15 25 30-1 5-2 9-5 13z m-207-44c-1 1-2 2-3 2-1 1-2 2-3 2-4 2-8 3-12 3-14 0-26-12-26-26 0-15 12-26 26-26 15 0 26 11 26 26 0 7-3 14-8 19z m127 7c-4 0-8-1-12-3-1 0-2-1-3-2-1 0-2-1-3-2-5-5-8-12-8-19 0-15 11-27 26-27 14 0 26 12 26 27 0 14-12 26-26 26z m180-94c0-52-43-95-95-95-39 0-74 22-89 58-3 8-12 30-14 34 0 1-1 2-2 2l-104 0c-1 0-2-1-2-2 0 0 0-1 0-1 0 0-2-3-3-6-3-9-9-21-11-27-15-36-50-58-88-58-53 0-96 43-96 95 0 12 2 24 6 35 0 0 1 1 1 2l51 124c0 0 1 0 1 1 10 21 31 35 54 35l46 0c17 0 31-12 36-26l114 0c4 14 18 26 35 26l47 0c24 0 45-14 55-35 0-1 0-1 0-1l51-124c1-1 1-2 1-2 4-11 6-23 6-35z m-34 0c0 8-1 15-3 21-1 1-1 1-1 1l-52 126c0 0 0 0 0 0-4 9-13 14-23 14l-47 0c-2 0-3-1-3-3 0 0 0 0 0 0l0-6c0-9-8-17-17-17l-145 0c-9 0-17 8-17 17l0 6c0 0 0 0 0 1 0 1-1 3-3 3l-46 0c-10 0-19-6-23-15 0 0 0 0 0 0l-52-126c0 0 0 0 0-1-3-6-4-13-4-21 0-34 28-61 62-61 24 0 47 14 56 37 3 6 8 19 11 27 2 3 3 6 3 7 6 14 19 23 34 23l104 0c15 0 28-9 34-24 0 0 0 0 0 0 1-1 10-24 14-33 10-22 32-37 57-37 34 0 61 27 61 61z"/>
<glyph glyph-name="l" unicode="&#57346;" d="M508 49c0-26-20-46-46-46l-412 0c-26 0-46 20-46 46l0 412c0 25 20 46 46 46l412 0c26 0 46-21 46-46z m-153 36l0 32-135 0 0 278-40 0 0-310z"/>
<glyph glyph-name="leer" unicode="&#57347;" d="M351 5l-252 0c-32 0-58 27-58 59l0 317c0 32 26 58 58 58l179 0c0 0 0 0 1 0 4 0 7-2 9-4l117-117c3-3 5-8 4-12l0-243c1-32-26-58-58-58z m-252 405c-16 0-29-13-29-29l0-317c0-16 13-29 29-29l252 0c16 0 29 13 29 28l0 230-102 0c-8 0-15 6-15 14l0 103z m194-88l67 0-67 67z m-91-241l-76 0c-6 0-10 4-10 10 0 5 4 9 10 9l76 0c5 0 9-4 9-9 0-6-4-10-9-10z m123 53l-199 0c-6 0-10 5-10 10 0 5 4 9 10 9l199 0c5 0 9-4 9-9 0-5-4-10-9-10z m0 53l-199 0c-6 0-10 4-10 9 0 6 4 10 10 10l199 0c5 0 9-4 9-10 0-5-4-9-9-9z m0 52l-199 0c-6 0-10 5-10 10 0 5 4 9 10 9l199 0c5 0 9-4 9-9 0-5-4-10-9-10z m135-150c11 11 17 26 17 41l0 317c0 33-26 59-58 59l-254 0c-15 0-30-6-41-17-6-6-6-15 0-21 6-6 15-6 21 0 5 5 12 8 20 8l254 0c16 0 29-13 29-29l0-317c0-7-3-15-8-20-6-6-6-15 0-21 2-3 6-4 10-4 4 0 7 1 10 4z"/>
<glyph glyph-name="linea" unicode="&#57348;" d="M362 22l-212 0c-43 0-78 35-78 78l0 158c0 10 8 19 19 19 10 0 18-9 18-19l0-158c0-23 19-41 42-41l211 0c23 0 41 18 41 41l0 158c0 10 9 19 19 19 10 0 19-8 19-19l0-158c-1-43-36-78-79-78z m126 284l-131 0c-5 0-10 2-13 5-4 4-6 9-6 14l0 60-163 0 0-60c0-11-9-19-19-19l-131 0c-5 0-10 2-13 5-4 4-6 9-6 14l0 86c0 49 41 90 91 90l319 0c0 0 1 0 1 0 49 0 90-41 90-90l0-86c0-11-8-19-19-19z m-113 37l95 0 0 67c0 30-24 54-54 54l-319 0c-29 0-53-24-53-54l0-67 93 0 0 61c0 10 9 18 19 18l201 0c5 0 9-2 13-5 4-4 6-8 6-13z m-61-96c0-6-6-12-12-12-7 0-12 6-12 12 0 6 5 12 12 12 6 0 12-6 12-12z m-92 0c0-6-5-12-11-12-7 0-12 6-12 12 0 6 5 12 12 12 6 0 11-6 11-12z m92-89c0-7-6-12-12-12-7 0-12 5-12 12 0 6 5 12 12 12 6 0 12-6 12-12z m-92 0c0-7-5-12-11-12-7 0-12 5-12 12 0 6 5 12 12 12 6 0 11-6 11-12z m80-31c-17 0-30 14-30 31 0 16 13 30 30 30 17 0 30-14 30-30 0-17-13-31-30-31z m-91 0c-17 0-31 14-31 31 0 16 14 30 31 30 16 0 30-14 30-30 0-17-14-31-30-31z m91 90c-17 0-30 13-30 30 0 17 13 30 30 30 17 0 30-13 30-30 0-17-13-30-30-30z m-91 0c-17 0-31 13-31 30 0 17 14 30 31 30 16 0 30-13 30-30 0-17-14-30-30-30z"/>
<glyph glyph-name="llamada" unicode="&#57349;" d="M365 7c-12 0-21 9-21 20 0 12 9 21 20 22 15 0 29 6 40 17l53 53-74 74-47-48c-4-4-9-6-15-6-5 0-11 2-14 6l-158 158c-4 4-6 9-6 15 0 5 2 10 6 14l47 48-74 74-34-34-19-19c-23-23-23-61 0-84l250-250c8-8 8-21 0-29-8-8-21-8-29 0l-250 250c-39 39-39 103 0 142l19 19 48 49c9 8 22 8 30 0l103-104c4-4 6-9 6-14 0-6-2-11-6-15l-47-47 128-129 48 48c4 4 9 6 14 6 6 0 11-2 15-6l103-103c8-9 8-22 0-30l-68-67c-18-18-42-29-68-30 0 0 0 0 0 0z"/>
<glyph glyph-name="llamada-conferencia" unicode="&#57350;" d="M482 7l-254 0c-8 0-15 7-15 16 0 44 20 86 55 113 7 5 17 4 23-3 5-7 4-17-3-22-24-18-39-44-43-72l220 0c-4 28-19 54-42 72-7 5-8 15-3 22 5 7 15 8 22 3 35-27 56-69 56-113 0-9-7-16-16-16z m-276 105l-85 0c-8 0-16 7-16 16 0 45 21 86 56 113 7 5 17 4 22-3 6-7 4-17-2-22-24-18-39-44-43-72l68 0c9 0 16-7 16-16 0-9-7-16-16-16z m149 22c-48 0-87 39-87 86 0 48 39 87 87 87 48 0 87-39 87-87 0-47-39-86-87-86z m0 142c-30 0-55-25-55-56 0-30 25-55 55-55 31 0 55 25 55 55 0 31-24 56-55 56z m-262-70l-69 0c-8 0-15 8-15 16 0 45 20 86 55 113 7 6 17 4 23-2 5-7 4-17-3-23-24-18-39-43-43-72l52 0c9 0 16-7 16-16 0-8-7-16-16-16z m141 34c-1 0-2 0-3 0-40 8-70 44-70 85 0 48 39 87 87 87 40 0 74-27 84-65 2-8-3-17-11-19-9-2-17 3-20 11-6 24-28 41-53 41-30 0-55-25-55-55 0-26 19-49 44-54 9-2 14-10 12-19-1-7-8-12-15-12z m-110 98c-2 0-5 1-7 1-32 14-52 45-52 80 0 48 38 87 86 87 34 0 65-20 79-50 4-8 0-18-8-21-8-4-17 0-21 8-9 19-28 31-50 31-30 0-55-24-55-55 0-22 13-42 34-50 8-4 12-13 8-21-2-6-8-10-14-10z"/>
<glyph glyph-name="llenar" unicode="&#57351;" d="M359 6l-55 0c-4 0-8 2-11 5-3 3-4 6-4 10l0 248c0 8 6 15 15 15l26 0c4 0 6 3 6 6 0 1 0 2 0 3l-73 72c-1 1-2 1-4 1-1 0-3 0-4-1l-70-70c0 0-1 0-1 0-1-1-2-3-2-5 0-3 3-6 6-6l27 0c8 0 15-7 15-15l0-248c0-8-7-15-15-15l-55 0c-33 0-60 27-60 60l0 426c0 8 7 15 15 15 8 0 15-7 15-15l0-426c0-16 13-30 30-30l40 0 0 218-12 0c-19 0-36 16-36 36 0 10 5 20 12 26l71 71c0 0 0 1 0 1 7 6 15 9 24 9 9 0 18-4 25-10 0 0 0 0 0 0l74-73c0-1 1-1 1-2 5-6 7-14 7-22 0-20-16-36-36-36l-11 0 0-218 40 0c17 0 30 14 30 30l0 336c0 16-13 30-30 30l-164 0c-3 0-6-3-6-6 0-9-7-15-15-15-8 0-15 6-15 15 0 20 16 36 36 36l164 0c33 0 60-27 60-60l0-336c0-33-27-60-60-60z"/>
<glyph glyph-name="lluvia" unicode="&#57352;" d="M98 7c-3 0-6 1-8 3-4 4-4 11 0 15l67 68c5 4 12 4 16 0 4-4 4-11 0-15l-68-68c-2-2-5-3-7-3z m117 44c-2 0-5 1-7 3-4 5-4 12 0 16l67 67c4 4 11 4 16 0 4-4 4-11 0-15l-68-68c-2-2-5-3-8-3z m285 230c0 67-55 122-122 122 0 0-1 0-1 0-10 58-60 102-120 102-32 0-63-13-86-35-18-18-30-42-35-67 0 0-1 0-2 0-67 0-122-55-122-122 0-67 55-122 122-122l61 0c9 0 17 8 17 17 0 9-8 17-17 17l-61 0c-48 0-88 39-88 88 0 49 40 89 88 89 5 0 9-1 13-1 1-1 2-1 3-1 12-2 23-6 33-13 8-5 18-3 23 5 5 8 3 18-4 23-10 7-21 12-32 15 7 41 44 73 87 73 47 0 85-37 88-83 0-2 0-4 0-6 0 0 0 0 0-1 0-8-1-16-3-23-3-9 2-18 11-21 9-3 18 3 21 12 2 6 3 13 4 20 49 0 88-39 88-88 0-49-39-88-88-88l-34 0c-9 0-17-8-17-17 0-9 8-17 17-17l34 0c67 0 122 55 122 122z"/>
<glyph glyph-name="lluvia-fuerte" unicode="&#57353;" d="M78 33c-3 0-5 2-8 4-4 4-4 11 0 15l70 70c4 4 11 4 16 0 4-4 4-11 0-16l-70-69c-2-3-5-4-8-4z m155 0c-3 0-6 2-8 4-4 4-4 11 0 15l70 70c4 4 11 4 16 0 4-4 4-11 0-16l-70-69c-2-3-5-4-8-4z m-78 0c-3 0-6 2-8 4-4 4-4 11 0 15l123 124c5 4 12 4 16 0 5-4 5-11 0-16l-123-123c-3-3-5-4-8-4z m352 240c0 69-57 125-126 125-10 59-61 104-123 104-32 0-63-13-87-36-19-19-31-42-35-68-1 0-2 0-2 0-69 0-125-56-125-125 0-68 56-124 125-124l61 0c10 0 18 7 18 17 0 10-8 17-18 17l-61 0c-50 0-90 41-90 90 0 50 40 91 90 91 4 0 9-1 13-1 1-1 2-1 3-1 12-2 23-6 33-13 8-5 19-3 24 5 5 8 3 18-5 24-10 6-21 11-32 15 7 42 45 74 89 74 47 0 87-37 90-84-1-2-1-4 0-6 0-1 0-1 0-1 0-8-2-16-4-24-3-9 3-18 12-21 9-3 18 2 21 11 2 7 4 14 4 22 50 0 90-41 90-91 0-49-40-90-90-90l-34 0c-10 0-17-7-17-17 0-9 7-17 17-17l34 0c69 0 125 56 125 124z"/>
<glyph glyph-name="lluvia-suave" unicode="&#57354;" d="M221 18c-2 0-5 2-7 4-5 4-5 11 0 16l70 70c4 4 11 4 16 0 4-4 4-12 0-16l-71-70c-2-3-5-4-8-4z m289 247c0 70-56 127-127 127 0 0 0 0-1 0-10 60-62 106-125 106-33 0-65-13-89-37-19-19-32-43-36-69-1 0-1 0-2 0-70 0-127-57-127-127 0-70 57-127 127-127l63 0c10 0 17 8 17 17 0 10-7 18-17 18l-63 0c-51 0-92 41-92 92 0 51 41 92 92 92 4 0 9 0 13-1 1 0 2 0 3-1 13-2 24-6 35-13 8-6 18-3 24 5 5 8 3 19-5 24-10 7-22 12-33 16 7 43 45 76 90 76 49 0 89-39 92-87 0-2 0-4 0-5 0-1 0-1 0-2 0-8-1-16-4-24-2-10 3-19 12-22 10-3 19 3 22 12 2 7 4 14 4 22 51 0 92-42 92-92 0-51-41-92-92-92l-58 0c-10 0-17-8-17-18 0-9 7-17 17-17l58 0c70 0 127 57 127 127z"/>
<glyph glyph-name="m" unicode="&#57355;" d="M507 49c0-25-20-45-45-45l-412 0c-25 0-45 20-45 45l0 412c0 25 20 46 45 46l412 0c25 0 45-21 45-46z m-358 37l0 231 89-166 33 0 90 164 0-229 37 0 0 309-33 0-109-204-108 204-35 0 0-309z"/>
<glyph glyph-name="manoslibres" unicode="&#57356;" d="M476 8l-438 0c-10 0-17 8-17 18 0 37 8 73 25 106 16 31 39 59 67 81 7 6 18 4 24-3 6-8 4-18-3-24-46-35-74-87-78-143l402 0c-4 56-32 108-78 143-7 6-9 16-3 24 6 7 17 9 24 3 28-22 52-50 67-81 17-33 25-69 25-106 0-10-7-18-17-18z m-219 219c-19 0-38 4-56 11-71 32-103 115-72 185 31 71 114 103 185 72 26-11 48-30 63-55 5-8 2-19-6-23-8-5-18-3-23 5-11 19-28 33-48 42-53 23-116-1-140-54-23-54 1-117 55-140 34-15 75-11 105 11 8 6 19 4 24-3 6-8 4-19-3-24-25-18-54-27-84-27z m131 67c-2 0-5 0-7 1-9 4-13 14-9 23l20 47c-3 5-4 11-3 16 2 7 6 13 11 17 6 4 13 5 20 4 13-2 23-16 20-30 0 0 0 0 0 0-2-9-8-16-17-20l-19-48c-3-6-9-10-16-10z"/>
<glyph glyph-name="medicina" unicode="&#57357;" d="M402 12l-328 0c-19 0-36 8-45 22-9 13-11 30-4 47 0 0 0 0 0 0 5 12 16 40 21 46 17 28 38 33 52 33l348 0c15 0 24 13 24 25 0 6-2 11-6 16-6 7-5 18 2 24 7 6 18 5 24-2 10-11 14-24 14-38 0-33-26-59-58-59l-17 0 20-45c1 0 1 0 1 0 7-17 6-34-3-48-9-13-26-21-45-21z m-345 57c-2-4-4-11 0-16 3-4 9-7 17-7l328 0c8 0 14 3 17 7 2 3 2 9-1 15l-26 58-294 0c-10 0-19-9-24-17-2-4-11-24-17-40z m328 118l-235 0c-9 0-17 7-17 17 0 9 8 17 17 17l235 0c16 0 28 12 28 28l0 191c0 15-12 28-28 28l-294 0c-16 0-29-13-29-28l0-191c0-16 13-28 29-28 9 0 17-8 17-17 0-10-8-17-17-17-35 0-63 28-63 62l0 191c0 34 28 62 63 62l294 0c35 0 63-28 63-62l0-191c0-34-28-62-63-62z m-115 86l30 73 9-19c2-4 6-6 10-6l44 0c6 0 11 5 11 11 0 6-5 11-11 11l-37 0-17 35c0 0 0 0 0 0-1 1-2 2-3 3 0 1-1 1-2 2 0 0-1 0-1 0-1 1-3 1-4 1-2 0-3-1-5-1 0 0 0 0 0-1-1 0-2-1-3-2-1-1-1-1-2-2 0 0 0-1 0-1l-29-70-48 119c0 0 0 0-1 1 0 1-1 2-1 2-1 1-1 1-1 1-1 1-2 1-2 1-2 1-3 1-5 1-1 1-3 0-4 0-1 0-1-1-1-1-1 0-2-1-3-2 0 0-1-1-1-1 0-1-1-1-1-2l-49-95c-3-5-1-12 5-14 5-3 12-1 15 4l38 74 49-122c2-4 6-6 10-6 5 0 9 2 10 6z"/>
<glyph glyph-name="mejorar" unicode="&#57358;" d="M346 15c-24 0-43 19-43 43l0 168c0 5 2 9 5 13 4 3 8 5 13 5l51 0c0 0 0 0 0 0 1 0 3 0 4 2 0 0 1 0 1 0 1 1 1 3 1 4 0 1 0 3-1 5 0 0 0 0 0 0l-95 95c-14 14-36 14-50 0l-95-95c0 0 0 0 0 0-1-2-2-4-2-5 0-1 1-3 2-4 0 0 0 0 0 0 2-1 4-2 5-2l51 0c10 0 18-8 18-18l0-168c0-24-19-43-43-43-6 0-11 1-16 3 0 0-1 0-1 0-24 12-47 27-66 45-49 46-78 108-80 176-3 67 21 131 67 181 46 49 109 77 176 80 67 2 132-22 181-68 45-43 73-100 79-162 5-62-12-123-48-172-6-8-18-10-26-4-8 6-9 17-3 25 65 88 54 211-27 286-42 40-97 61-155 58-57-1-111-26-150-68-81-87-77-224 10-306 17-15 36-28 57-38 0 0 1 0 2 0 4 0 7 3 7 7l0 150-33 0c-11 0-22 4-30 12-8 8-13 19-13 30 0 12 5 22 13 30l95 95c27 28 72 28 100 0l95-95c8-8 12-18 12-30 0-11-4-22-12-30-8-8-19-12-31-12l-32 0 0-150c0-4 3-7 7-7 1 0 1 0 2 0 12 6 25 13 37 22 8 6 20 5 25-3 6-8 5-20-3-26-15-10-30-19-45-26 0 0 0 0 0 0-5-2-11-3-16-3z"/>
<glyph glyph-name="melodias" unicode="&#57359;" d="M252 7l-134 0c-33 0-60 27-60 60l0 425c0 8 7 15 15 15 8 0 15-7 15-15l0-425c0-16 13-29 30-29l134 0c8 0 15-7 15-15 0-9-7-16-15-16z m0 183l-99 0c-20 0-36 16-36 36l0 119c0 8 6 15 15 15 8 0 15-7 15-15l0-119c0-3 3-6 6-6l99 0c9 0 15-6 15-15 0-8-6-15-15-15z m52 73c-9 0-15 7-15 15l0 88c0 4-3 6-6 6l-130 0c-20 0-36 16-36 36l0 18c0 20 16 36 36 36l164 0c33 0 59-27 59-60l0-106c0-8-6-15-15-15-8 0-15 7-15 15l0 106c0 16-13 30-29 30l-164 0c-3 0-6-3-6-6l0-18c0-3 3-6 6-6l130 0c20 0 36-16 36-36l0-88c0-8-7-15-15-15z m109-226l39 0c9 0 13 5 15 8 3 5 2 11-3 18-2 4-14 25-22 37l0 60c0 22-10 42-27 54-4 3-11 2-14-2-3-4-2-10 2-14 13-8 20-23 20-38l0-63c0-1 0-3 1-5 1-1 15-25 22-36l-42 0c-5 0-10-4-10-9 0-11-8-19-18-19-11 0-19 8-19 19 0 5-4 9-10 9l-42 0c4 6 10 17 22 36 1 2 2 4 2 5l0 63c0 26 21 47 47 47 5 0 10 5 10 10l0 21c0 6-5 10-10 10-6 0-10-4-10-10l0-12c-32-5-57-32-57-66l0-60c-10-16-21-34-23-37-4-4-5-11-3-17 2-5 8-9 14-9l42 0c4-16 19-29 37-29 17 0 32 12 37 29z"/>
<glyph glyph-name="memoria" unicode="&#57360;" d="M243 254c22 0 42 9 55 26 12 16 18 36 18 60 0 25-12 49-32 62-14 9-31 12-49 7 18 31 43 51 43 51 7 6 8 17 2 24-5 8-16 9-24 3-2-2-51-42-69-100-14-42-10-82 9-108 11-17 28-25 47-25z m-30 84c0 25 16 33 19 34 0 1 0 1 1 1 13 6 24 6 32 0 10-6 17-20 17-33 0-25-10-52-39-52-8 0-14 3-20 11-6 8-10 21-10 38 0 0 0 1 0 1z m-53-260c-14 0-25 11-25 25l0 328c0 14 11 25 25 25 9 0 17 8 17 17 0 10-8 18-17 18-33 0-60-27-60-60l0-50-34 0c-32 0-59-27-59-59l0-109c0-33 27-59 59-59l34 0 0-51c0-33 27-59 60-59 9 0 17 8 17 17 0 9-8 17-17 17z m-94 109c-13 0-25 12-25 26l0 109c0 13 12 25 25 25l34 0 0-14-22 0c-10 0-17-8-17-18 0-9 7-17 17-17l22 0 0-13-22 0c-10 0-17-8-17-18 0-9 7-17 17-17l22 0 0-13-22 0c-10 0-17-8-17-18 0-9 7-17 17-17l22 0 0-15z m423-14c0 29-24 52-53 52l-44 0c-10 0-17-7-17-17l0-147c0-9 7-17 17-17l44 0c31 0 56 25 56 55 0 15-6 29-16 39 8 10 13 22 13 35z m-80 18l27 0c10 0 19-8 19-18 0-10-9-18-19-18 0 0 0 0-1 0l-26 0z m27-113l-27 0 0 43 27 0c12 0 22-10 22-22 0-11-10-21-22-21z m50 213c13 21 21 50 21 81 0 32-7 60-20 81-16 24-39 38-65 38-27 0-50-14-66-38-13-21-20-49-20-81 0-70 36-118 86-118 25 0 48 13 64 37z m-115 81c0 39 13 84 51 84 35 0 51-42 51-84 0-42-18-84-51-84-35 0-51 43-51 84z m-21-164l0-147c0-9-8-17-17-17-10 0-18 8-18 17l0 61-27-68c-3-6-9-10-16-10-7 0-13 4-16 10l-28 68 0-61c0-9-8-17-17-17-9 0-17 8-17 17l0 147c0 8 5 15 13 17 8 2 17-3 20-10l45-109 45 109c3 7 11 12 19 10 8-2 14-9 14-17z"/>
<glyph glyph-name="meteorologia" unicode="&#57361;" d="M50 437c-6 6-6 16 0 22 6 6 16 6 22 0l25-25c7-7 7-16 0-23-3-3-7-4-11-4-4 0-8 1-11 4z m112 1c8 0 15 7 15 16l0 35c0 9-7 16-15 16-9 0-16-7-16-16l0-35c0-9 7-16 16-16z m-91-91c0 9-7 15-16 15l-36 0c-8 0-15-6-15-15 0-8 7-15 15-15l36 0c9 0 16 7 16 15z m4-64l-25-25c-6-7-6-16 0-22 3-4 7-5 11-5 4 0 8 1 11 5l25 25c7 6 7 16 0 22-6 6-16 6-22 0z m162 124c4 0 8 1 11 4l25 26c6 6 6 16 0 22-6 6-16 6-22 0l-25-25c-6-7-6-16 0-23 3-3 7-4 11-4z m213-67c-33 33-76 52-122 56l0 17c0 9-7 16-16 16-8 0-15-7-15-16l0-17c-19-2-38-6-56-13-14 32-46 52-81 51-23-1-44-10-60-27-15-17-23-39-23-62 1-15 5-29 13-42 3-5 8-7 13-7 3 0 6 1 9 2 7 5 9 14 5 22-5 8-8 17-8 27-1 14 4 28 14 39 10 10 24 16 38 17 23 0 43-13 52-34-14-8-27-18-39-29-37-37-58-85-59-137 0-4 2-8 5-11 3-3 7-5 11-5l0 0c8 0 15 6 16 14 1 16 14 28 29 28 16 0 29-12 30-28 1-8 8-14 16-14 8 0 15 6 15 14 2 16 15 28 30 28 16 0 29-12 30-28 0 0 0 0 0 0l0-128c-1-17-14-31-32-31-17 0-32 14-32 32 0 8-7 15-15 15-9 0-16-7-16-15 0-35 28-63 63-63 16 0 32 6 44 18 12 11 18 27 19 43 0 0 0 1 0 1l0 128c0 0 0 1 0 1 0 1 0 1 0 2-2 15-9 29-20 40-11 10-26 16-41 16-18 0-34-8-46-20-11 12-27 20-45 20-6 0-13-1-19-3 24 63 85 108 155 108 71 0 132-45 155-108-6 2-12 3-19 3-18 0-34-8-45-20-1 1-3 2-4 4-12 10-26 16-42 16-8 0-15-7-15-16 0-8 7-15 15-15 16 0 29-12 30-28 1-8 8-14 16-14 8 0 15 6 15 15 2 15 15 27 30 27 15 0 28-12 30-27 0-9 7-15 15-15 5 0 9 2 12 5 2 3 4 7 4 11-1 52-22 101-59 137z"/>
<glyph glyph-name="mi-movistar" unicode="&#57362;" d="M480 2l-445 0c-10 0-18 8-18 17 0 38 9 73 25 107 16 31 38 60 66 81 8 6 18 5 24-2 6-8 5-19-2-24-45-36-73-88-78-144l410 0c-4 56-32 108-77 144-8 5-9 16-3 24 6 7 17 8 24 3 58-46 91-115 91-188 0-10-8-18-17-18z m-221 223c-77 0-141 63-141 141 0 77 63 140 141 140 78 0 141-63 141-140 0-78-63-141-141-141z m0 247c-59 0-106-48-106-106 0-59 47-107 106-107 59 0 107 48 107 107-1 58-48 106-107 106z"/>
<glyph glyph-name="mirar" unicode="&#57363;" d="M139 4c-2 0-4 1-6 2-8 3-12 12-9 20l75 180-50-21c0 0 0 0-1 0-15-6-33 4-50 29l-36-15c0 0 0 0 0 0-15-6-30 7-41 32-10 26-8 46 6 52 0 0 1 0 1 0l36 15c-5 30 1 49 16 56l137 56c2 16 8 27 20 32l154 64c0 0 0 0 0 0 32 12 67-36 89-89 21-53 29-113-2-125l-154-64c0 0 0 0 0 0-31-13-67 35-89 89-8 20-14 41-17 60l-123-51c-2-4-2-15 2-33 0 0 0 0 0 0l0-1c2-8-2-15-9-18l-42-17c1-3 2-8 4-14 3-6 5-10 7-12l41 17c8 3 17 0 20-7l1-1c9-16 17-23 20-25l83 34c2 1 4 2 6 2 2 0 4-1 5-1 1-1 1-1 2-1 1-1 3-2 4-3 1-1 3-3 3-5 1-2 2-4 2-6 0-2-1-4-2-6l-89-215c-2-6-8-10-14-10z m111 409c-4-6-5-37 14-85 19-47 42-69 49-71l121 50c-2 2-4 5-7 7-14 17-27 40-38 66-5 14-10 28-13 42-2 9 3 17 11 19 9 2 17-3 19-11 3-13 8-26 13-38 18-44 38-66 47-70 3 8 3 39-15 83-19 48-42 69-49 71z m81-409c-6 0-12 4-14 10l-65 157c-3 8 1 17 9 20 7 3 17 0 20-8l65-157c3-8-1-17-9-20-2-1-4-2-6-2z"/>
<glyph glyph-name="mis-ajustes" unicode="&#57364;" d="M396 87c-2 0-3 0-4 1-5 2-7 7-5 12l32 76c0 0 0 0 0 1 2 4 6 7 11 7 24 1 45 16 54 38 8 18 6 38-4 55l-19-47c-8-19-30-28-49-20 0 0 0 0 0 0-9 3-16 11-20 20-4 9-4 19 0 28l19 47c-18-5-34-18-41-36-10-22-5-48 12-66 0 0 1-1 1-2 2-3 2-6 1-10 0 0 0 0 0 0l-5-12c-2-5-7-7-12-5-5 2-7 8-5 12l3 8c-19 23-24 55-13 82 12 28 38 47 68 50 0 0 1 0 1 0 1 0 3 0 5-1 0 0 0 0 0 0 6-3 9-11 6-17l-23-57c-2-5-2-10 0-14 2-5 5-8 10-10 9-4 20 0 24 10l23 54c0 0 0 1 0 1l1 2c3 6 9 9 16 7 0 0 1 0 1-1 2-1 3-2 4-3 20-23 24-55 13-82-12-28-38-47-67-50l-30-72c-1-4-5-6-8-6z m-46 13c0 53-24 102-65 134-6 5-15 4-20-2-5-7-4-16 2-21 30-24 49-58 53-96l-282 0c4 38 23 72 53 96 6 5 7 14 2 21-5 6-14 7-20 2-41-32-65-81-65-134 0-8 7-14 15-14l312 0c8 0 15 6 15 14z m-59 254c0 61-50 111-112 111-61 0-112-50-112-111 0-62 50-112 112-112 62 0 112 50 112 112z m-29 0c0-46-37-83-83-83-46 0-83 37-83 83 0 45 37 82 83 82 46 1 83-37 83-82z"/>
<glyph glyph-name="miscelanea" unicode="&#57365;" d="M18 18c-2 0-5 1-8 2-7 4-10 14-5 22 11 20 29 34 51 40 22 6 45 3 65-9 0 0 0 0 1-1 29-14 63-8 86 15 6 7 11 14 15 21l-72 1c-22 0-39 17-39 38l0 118c0 1 0 3 0 4 1 15 8 30 19 41 0 0 0 0 0 0l177 177c12 12 28 19 45 19 0 0 0 0 0 0 17 0 33-7 45-19l93-93c25-24 25-65 0-90l-177-177c-12-12-28-18-44-19 0 0-1 0-1 0l-12 0c-5-16-14-31-26-43-16-17-37-27-60-31-22-3-45 0-65 10-1 1-2 1-3 2-12 6-25 8-39 4-13-3-25-12-32-24-3-5-8-8-14-8z m244 123l7 0c8 0 16 3 22 9l177 177c12 12 12 32 0 45l-93 92c-6 6-13 9-22 9 0 0 0 0 0 0-8 0-16-3-22-9l-177-177c-6-6-10-14-10-22 0-1 0-2 0-3l0-115c0-3 3-6 6-6l80 0c0 10-3 21-7 31-3-1-6-1-10-1-21 0-38 17-38 38 0 22 17 39 38 39 22 0 39-17 39-39 0-5-1-11-4-16 10-16 14-34 14-52z"/>
<glyph glyph-name="mms" unicode="&#57366;" d="M390 132c2-5 2-10-1-14-3-4-7-6-12-6l-204 0c-4 0-9 2-12 6-2 4-3 10-1 14l64 155c3 5 8 9 14 9 6 0 11-4 13-9l40-97c3-7 0-16-8-19-7-3-16 1-19 8l-26 65-43-103 160 0-22 54c-4-7-11-10-18-7-8 3-11 12-8 19l13 31c2 5 7 9 13 9 6 0 11-4 14-9z m14 166c-21 9-45 3-60-15-5-6-4-15 2-20 6-5 16-5 21 2 6 7 17 10 26 6 11-5 17-18 12-29-3-7-9-12-16-14-8-1-13-9-11-17 2-7 8-11 14-11 1 0 2 0 4 0 16 4 29 15 36 30 11 27-2 57-28 68z m84 22l0-229c0-18-15-33-34-33l-18 0c-3-29-28-53-58-53 0 0 0 0 0 0l-282 0c-33 0-59 27-59 59l0 241c0 1 0 2 0 3 0 16 6 32 18 44l140 141c23 22 61 22 84 0l78-78c5-6 5-15 0-21-6-6-15-6-21 0l-78 78c-12 12-30 12-42 0l-141-141c-11-11-11-30 0-42l33-32 0 63c0 19 15 34 33 34l313 0c19 0 34-15 34-34z m-81-262l-266 0c-18 0-33 15-33 33l0 124-41 42 0-193c0-16 13-29 29-29l282 0c0 0 0 0 0 0 14 0 26 10 29 23z m52 262c0 3-2 5-5 5l-313 0c-2 0-4-2-4-5l0-96c0-2 0-4 0-6l0-127c0-2 2-4 4-4l313 0c3 0 5 2 5 4z"/>
<glyph glyph-name="nuevo" unicode="&#57367;" d="M256 3c-14 0-27 7-33 19 0 1-1 1-1 2l-31 74-75-30c0 0 0 0-1 0-13-4-27-1-37 9-7 7-13 18-7 35 0 0 0 0 0 0l29 79-38 15-34 15c-1 0-1 0-2 0-1 1-1 1-2 1 0 0 0 0 0 1-12 6-20 18-20 31 0 1 0 1 0 1 0 14 7 27 20 33 1 1 1 1 1 1l75 31-30 75c0 1-1 1-1 1-4 13 0 28 9 37 10 10 22 12 35 7 0 0 0 0 0 0l79-28 16 37 14 35c0 1 1 2 1 3 7 12 19 20 33 21 0 0 0 0 1 0 14 0 26-8 33-20 0-1 0-1 1-2l30-74 75 30c1 0 1 0 2 0 13 4 27 1 37-9 9-9 12-21 7-35 0 0 0 0 0 0l-29-78 38-16 34-15c1 0 2 0 2-1 13-6 21-18 22-32 0 0 0-1 0-1 0-14-8-27-20-34-1 0-1 0-2 0l-74-31 30-75c0 0 0-1 0-1 5-13 1-27-8-37-1 0-1 0-1 0-9-10-21-12-35-7l-18 6c-9 3-13 13-10 22 3 9 13 13 21 10l19-6c0 0 0 0 0 0 0 0 0 0 0-1 0 1 0 2 0 2l-36 90c-3 9 1 18 9 22l89 37c1 0 2 1 2 3 0 1-1 2-2 3-1 0-1 0-2 1l-33 13c0 0 0 0 0 0l-53 23c-8 3-12 13-9 21l34 93c0 0 0 1 0 1 0 0-1 0-2 0l-90-36c-8-4-18 0-21 9l-37 89c-1 1-2 2-3 2-2 0-2-1-3-2 0-1-1-2-1-3l-14-33-22-52c-4-9-13-13-22-10l-93 35c0 0 0 0-1 0 0-1 0-2 0-2l36-90c4-9 0-18-9-22l-89-37c-1 0-1-1-1-3 0-1 0-2 2-3 0 0 1-1 2-1l33-14 52-22c9-3 13-13 10-21l-34-94c0 0 0 0-1 0 1 0 2 0 2 0l90 36c9 3 19-1 22-9l37-89c1-1 2-2 3-2 1 0 2 1 3 2 0 1 1 2 1 3l14 33c0 0 0 0 0 0l22 52c3 9 13 13 21 10l23-9c8-3 13-13 10-21-4-9-13-13-22-10l-7 3-16-38-14-35c-1-1-1-2-2-3-6-12-18-20-32-20-1 0-1 0-1 0z"/>
<glyph glyph-name="nuboso" unicode="&#57368;" d="M304 98l-55 0c-9 0-16 7-16 16 0 9 7 16 16 16l55 0c39 0 70 31 70 69 0 38-30 69-68 70-1-5-2-10-3-15-3-9-11-13-20-11-8 2-13 11-10 19 2 6 2 12 3 18 0 1-1 1-1 1 0 2 0 4 0 5-2 37-32 65-69 65-33 0-62-24-68-55 8-3 17-7 24-12 8-5 10-15 5-22-5-7-15-9-22-4-8 5-16 8-25 10-1 0-2 0-3 0-3 1-7 1-10 1-38 0-70-31-70-69 0-39 32-70 70-70l70 0c8 0 15-7 15-16 0-8-7-15-15-15l-70 0c-56 0-101 45-101 101 0 55 45 100 101 100 4 21 14 39 28 54 19 18 45 29 71 29 0 0 1 0 1 0 3 21 13 40 29 55 19 19 44 29 70 29 50 0 91-35 100-82 55-1 100-46 100-101 0-40-24-76-60-92-8-4-18 0-21 8-4 8 0 17 8 20 25 11 42 36 42 64 0 38-31 69-68 70-1-6-2-11-3-16-3-8-11-13-20-11-8 3-13 11-10 20 1 6 2 12 2 18 0 0 0 1 0 1 0 1 0 3 0 4-2 37-32 66-69 66-35 0-64-25-69-58 34-12 61-41 67-78 56 0 100-45 100-101 0-55-45-101-101-101z"/>
<glyph glyph-name="nublado" unicode="&#57369;" d="M381 102l-70 0c-9 0-17 8-17 17 0 10 8 17 17 17l70 0c51 0 91 41 91 91 0 50-40 91-90 91-1-7-3-14-5-21-2-10-12-15-21-12-9 3-14 12-12 21 3 8 4 16 4 24 0 1 0 1 0 2-1 1-1 3 0 5-3 47-43 85-91 85-44 0-82-32-89-75 11-3 22-8 32-15 8-5 10-16 5-24-5-8-16-10-24-5-10 7-21 12-33 14-1 0-2 0-3 0-5 1-9 1-14 1-50 0-90-40-90-91 0-50 40-90 90-90l89 0c9 0 17-8 17-18 0-9-8-17-17-17l-89 0c-69 0-125 56-125 125 0 69 56 126 125 126 1 0 2 0 2 0 5 26 17 49 36 68 24 23 55 36 88 36 62 0 113-45 123-105 1 0 1 0 1 0 69 0 126-56 126-125 0-69-57-125-126-125z"/>
<glyph glyph-name="noticias" unicode="&#57370;" d="M137 9c-8 0-14 4-17 11l-85 209c-2 5-1 12 2 17 3 5 9 8 15 8 22 0 43-4 64-10 10 15 22 28 37 39 8 6 19 4 25-4 6-7 4-19-3-25-10-7-18-14-25-23 51-25 91-67 112-120 22 54 64 98 117 122-7 8-14 15-23 21-7 6-9 18-3 25 6 8 17 10 25 4 14-11 26-23 36-37 19 5 38 8 58 8 6 0 11-3 15-8 3-5 4-12 1-17l-88-209c-3-9-14-13-23-10-9 4-13 15-10 24l77 182c-10-2-20-4-29-7-2-1-3-1-5-1-74-26-128-97-128-180 0-10-8-18-18-18-1 0-1 0-2 0-1 0-1 0-2 0-10 0-18 8-18 18 0 95-71 175-163 188l74-182c4-9-1-20-10-24-2-1-4-1-6-1z m128 276c-61 0-111 50-111 112 0 61 50 111 111 111 30 0 58-12 79-33 21-21 33-49 33-78 0-62-50-112-112-112z m0 187c-41 0-75-34-75-75 0-42 34-76 75-76 42 0 76 34 76 76 0 41-34 75-76 75z"/>
<glyph glyph-name="nieve" unicode="&#57371;" d="M376 169l-55 0c-9 0-16 7-16 16 0 9 7 16 16 16l55 0c47 0 86 39 86 86 0 48-39 87-86 87-1-7-2-14-4-21-3-8-12-13-20-11-9 3-14 12-12 20 3 8 4 15 4 23 0 0 0 1 0 1-1 2-1 4 0 5-3 46-41 82-87 82-42 0-77-31-84-72 11-3 21-8 31-14 7-5 9-15 4-23-5-7-15-9-22-4-10 6-21 10-33 12 0 1-1 1-2 1-4 0-8 1-13 1-47 0-86-39-86-86 0-48 39-87 86-87l59 0c9 0 17-7 17-16 0-9-8-16-17-16l-59 0c-65 0-119 53-119 119 0 65 54 118 119 118 1 0 1 0 2 0 4 25 16 48 34 65 23 22 52 34 84 34 59 0 107-43 117-99 0 0 1 0 1 0 65 0 119-53 119-119 0-65-54-118-119-118z m-124-83l31 31 41 17c5 2 8 8 5 13-2 6-8 8-14 6l-38-16-38 16c-6 2-12 0-14-6-2-5 0-11 6-13l27-12-21-21c-4-4-4-11 0-15 2-2 5-3 7-3 3 0 6 1 8 3z m65 0c4 5 4 11 0 15l-33 32c-4 4-10 4-14 0-5-4-4-11 0-15l32-32c2-2 5-3 8-3 2 0 5 1 7 3z m-163-79l26 24 25-24c4-4 11-4 15 0 4 4 4 11 0 15l-22 21 28 11c6 3 8 9 6 14-2 6-9 8-14 6l-38-16-39 16c-5 2-11-1-13-6-3-5 0-11 5-14l28-11-22-21c-4-4-4-11 0-15 2-2 5-3 8-3 3-1 5 1 7 3z m134 119l0 46c0 6-5 10-11 10-6 0-10-4-10-10l0-46c0-6 4-11 10-11 6 0 11 5 11 11z m-98-80l0 46c0 6-4 11-10 11-6 0-11-5-11-11l0-46c0-6 5-10 11-10 6 0 10 4 10 10z"/>
<glyph glyph-name="niebla" unicode="&#57372;" d="M494 122l-96 0c-8 0-15 7-15 16 0 8 7 15 15 15l96 0c9 0 16-7 16-15 0-9-7-16-16-16z m-149 0l-96 0c-8 0-15 7-15 16 0 8 7 15 15 15l96 0c9 0 16-7 16-15 0-9-7-16-16-16z m-151 0l-96 0c-8 0-15 7-15 16 0 8 7 15 15 15l96 0c9 0 16-7 16-15 0-9-7-16-16-16z m224 63l-96 0c-9 0-16 7-16 16 0 8 7 15 16 15l96 0c8 0 15-7 15-15 0-9-7-16-15-16z m-149 0l-96 0c-9 0-16 7-16 16 0 8 7 15 16 15l96 0c8 0 15-7 15-15 0-9-7-16-15-16z m-151 0l-96 0c-8 0-15 7-15 16 0 8 6 15 15 15l96 0c9 0 16-7 16-15 0-9-8-16-16-16z m227 58l-96 0c-8 0-15 7-15 15 0 9 7 16 15 16l96 0c9 0 16-7 16-16 0-8-7-15-16-15z m-151 0l-96 0c-8 0-15 7-15 15 0 9 7 16 15 16l96 0c9 0 16-7 16-16 0-8-7-15-16-15z m224 66l-96 0c-9 0-16 7-16 15 0 9 7 16 16 16l96 0c8 0 15-7 15-16 0-8-7-15-15-15z m-149 0l-96 0c-9 0-16 7-16 15 0 9 7 16 16 16l96 0c8 0 15-7 15-16 0-8-7-15-15-15z m-151 0l-96 0c-8 0-15 7-15 15 0 9 6 16 15 16l96 0c9 0 16-7 16-16 0-8-8-15-16-15z m376 57l-96 0c-8 0-15 7-15 16 0 8 7 15 15 15l96 0c9 0 16-7 16-15 0-9-7-16-16-16z m-149 0l-96 0c-8 0-15 7-15 16 0 8 7 15 15 15l96 0c9 0 16-7 16-15 0-9-7-16-16-16z m-151 0l-96 0c-8 0-15 7-15 16 0 8 7 15 15 15l96 0c9 0 16-7 16-15 0-9-7-16-16-16z"/>
<glyph glyph-name="navegador" unicode="&#57373;" d="M502 334l-224-224c1-3 1-7 1-10 0-20-15-35-35-35-19 0-35 15-35 35 0 19 16 35 35 35 4 0 7 0 10-1l27 27c-27 17-64 13-88-10-4-5-11-5-15 0-4 4-4 11 0 15 32 32 83 36 119 10l36 36c-57 44-138 41-190-11-4-4-11-4-16 0-4 4-4 11 0 15 61 60 156 64 221 12l42 41c-41 35-92 54-146 54-60 0-116-23-158-65-4-4-11-4-15 0-5 4-5 11 0 15 46 46 107 72 173 72 60 0 116-21 161-60l49 49c-123 110-314 106-432-12-4-4-11-4-16 0-4 4-4 11 0 15 64 64 148 99 238 99 84 0 164-31 225-87l9 9c7 6 18 6 24 0 7-7 7-17 0-24z m-462-88c-4 0-8-1-11-3-1 0-3-1-4-2 0 0-1-1-2-1-5-5-8-12-8-19 0-14 11-25 25-25 14 0 25 11 25 25 0 14-11 25-25 25z"/>
<glyph glyph-name="n" unicode="&#57374;" d="M508 50c0-25-21-45-46-45l-412 0c-25 0-45 20-45 45l0 412c0 25 20 46 45 46l412 0c25 0 46-21 46-46l0-412z m-333 37l0 235 167-235 31 0 0 309-36 0 0-241-169 241-28 0 0-309 35 0z"/>
<glyph glyph-name="musica" unicode="&#57375;" d="M123 5c-53 0-96 43-96 95 0 53 43 96 96 96 12 0 24-3 36-7 7-3 11-12 8-19-4-8-12-11-19-8-8 3-17 5-25 5-37 0-67-30-67-67 0-36 30-66 67-66 36 0 65 28 66 64 0 0 0 0 0 1 0 0 0 1 0 1 0 1 0 1 0 2l0 291c0 1 0 1 0 2 1 3 1 4 2 6 2 2 3 3 5 5 1 0 2 0 2 1l242 99c1 0 2 1 3 1 2 0 3 0 5 0 2 0 4-1 6-2 2-1 3-3 4-5 1-1 2-3 2-5 0-1 0-2 0-3l0-57c1-1 1-3 0-4l0-258c0-1 0-1 0-2-1-52-43-94-95-94-53 0-95 43-95 96 0 52 42 95 95 95 26 0 49-10 66-27l0 170-213-88 0-223c0 0 0-1 0-1 0-1 0-1 0-2-1-25-11-48-29-65-18-18-41-27-66-27z m242 234c-37 0-66-29-66-66 0-37 29-66 66-66 36 0 66 29 66 66 0 37-30 66-66 66z m-147 144l0-28 213 88 0 28z"/>
<glyph glyph-name="movil-tarjeta" unicode="&#57376;" d="M365 118l-321 0c-16 0-30 12-33 28-2 9 4 17 12 18 8 2 16-4 18-12 0-1 1-3 3-3l321 0c7 0 13 3 18 7l83 84c0 0 0 0 0 0 5 4 8 11 8 17l0 104c0 14-11 25-25 25l-405 0c-2 0-3-2-3-4l0-23c0-2 1-3 3-3l168 0c19 0 34-16 34-35l0-105c0-19-15-35-34-35l-168 0c-19 0-34 16-34 35l0 76c0 8 7 15 15 15 9 0 16-7 16-15l0-76c0-2 1-4 3-4l168 0c2 0 3 2 3 4l0 105c0 2-1 4-3 4l-168 0c-19 0-34 15-34 34l0 23c0 19 15 35 34 35l405 0c31 0 56-25 56-56l0-104c0-15-7-29-17-39l-84-84c-10-10-24-16-39-16z"/>
<glyph glyph-name="movil-contrato" unicode="&#57377;" d="M186 8l-82 0c-33 0-60 27-60 59l0 425c0 9 7 16 15 16 9 0 16-7 16-16l0-425c0-16 13-29 29-29l82 0c9 0 16-7 16-15 0-9-7-15-16-15z m162 183c-9 0-16 7-16 15l0 197c0 16-13 29-29 29l-164 0c-3 0-6-2-6-6l0-17c0-3 3-6 6-6l130 0c20 0 36-16 36-36l0-140c0-20-16-36-36-36l-130 0c-20 0-36 16-36 36l0 110c0 8 7 15 15 15 9 0 15-7 15-15l0-110c0-3 3-6 6-6l130 0c3 0 6 3 6 6l0 140c0 3-3 6-6 6l-130 0c-20 0-36 16-36 36l0 17c0 20 16 37 36 37l164 0c33 0 60-27 60-60l0-197c0-9-7-15-15-15z m64-183l-169 0c-6 0-10 5-10 10 0 6 4 10 10 10l169 0c3 0 5 1 7 3l41 41c0 0 1 1 1 1 2 2 3 4 3 7l0 51c0 6-5 11-10 11l-88 0 0-75c0-6-4-10-10-10l-113 0c-6 0-10 4-10 10l0 84c0 3 1 5 3 7 2 2 4 3 7 3l211 0c16 0 30-13 30-30l0-51c0-8-4-16-9-22l-42-41c-6-5-13-9-21-9z m-159 69l93 0 0 65-94 0z"/>
</font>
</defs>
</svg>
